<svg xmlns="http://www.w3.org/2000/svg" xmlns:xlink="http://www.w3.org/1999/xlink" xmlns:lucid="lucid" width="2619" height="1911"><g transform="translate(73 -855)" lucid:page-tab-id="0_0"><path d="M931.16 1663.87h625.8v397h-625.8z" stroke="#000" stroke-width="2" fill="#cfe4ff"/><path d="M931.16 1711.8h625.8" stroke="#000" stroke-width="2" fill="none"/><use xlink:href="#a" transform="matrix(1,0,0,1,939.1615459219335,1671.8695706013043) translate(120.12265624999998 25.603515625)"/><use xlink:href="#b" transform="matrix(1,0,0,1,943.1615459219335,1719.8125393513044) translate(0 35.84296874999998)"/><use xlink:href="#c" transform="matrix(1,0,0,1,943.1615459219335,1719.8125393513044) translate(172.67578125 35.84296874999998)"/><use xlink:href="#d" transform="matrix(1,0,0,1,943.1615459219335,1719.8125393513044) translate(187.44140625 35.84296874999998)"/><use xlink:href="#e" transform="matrix(1,0,0,1,943.1615459219335,1719.8125393513044) translate(234.2109375 35.84296874999998)"/><use xlink:href="#f" transform="matrix(1,0,0,1,943.1615459219335,1719.8125393513044) translate(0 70.68984374999998)"/><use xlink:href="#c" transform="matrix(1,0,0,1,943.1615459219335,1719.8125393513044) translate(111.52734375 70.68984374999998)"/><use xlink:href="#d" transform="matrix(1,0,0,1,943.1615459219335,1719.8125393513044) translate(126.29296875 70.68984374999998)"/><use xlink:href="#g" transform="matrix(1,0,0,1,943.1615459219335,1719.8125393513044) translate(173.0625 70.68984374999998)"/><use xlink:href="#h" transform="matrix(1,0,0,1,943.1615459219335,1719.8125393513044) translate(244.6640625 70.68984374999998)"/><use xlink:href="#i" transform="matrix(1,0,0,1,943.1615459219335,1719.8125393513044) translate(0 105.53671874999998)"/><use xlink:href="#c" transform="matrix(1,0,0,1,943.1615459219335,1719.8125393513044) translate(151.62890625 105.53671874999998)"/><use xlink:href="#d" transform="matrix(1,0,0,1,943.1615459219335,1719.8125393513044) translate(166.39453125 105.53671874999998)"/><use xlink:href="#g" transform="matrix(1,0,0,1,943.1615459219335,1719.8125393513044) translate(213.1640625 105.53671874999998)"/><use xlink:href="#j" transform="matrix(1,0,0,1,943.1615459219335,1719.8125393513044) translate(284.765625 105.53671874999998)"/><use xlink:href="#k" transform="matrix(1,0,0,1,943.1615459219335,1719.8125393513044) translate(0 140.38359375)"/><use xlink:href="#c" transform="matrix(1,0,0,1,943.1615459219335,1719.8125393513044) translate(154.078125 140.38359375)"/><use xlink:href="#d" transform="matrix(1,0,0,1,943.1615459219335,1719.8125393513044) translate(168.84375 140.38359375)"/><use xlink:href="#g" transform="matrix(1,0,0,1,943.1615459219335,1719.8125393513044) translate(215.61328125 140.38359375)"/><use xlink:href="#l" transform="matrix(1,0,0,1,943.1615459219335,1719.8125393513044) translate(287.21484375 140.38359375)"/><use xlink:href="#m" transform="matrix(1,0,0,1,943.1615459219335,1719.8125393513044) translate(0 175.23046874999997)"/><use xlink:href="#c" transform="matrix(1,0,0,1,943.1615459219335,1719.8125393513044) translate(112.06640625 175.23046874999997)"/><use xlink:href="#d" transform="matrix(1,0,0,1,943.1615459219335,1719.8125393513044) translate(126.83203125 175.23046874999997)"/><use xlink:href="#g" transform="matrix(1,0,0,1,943.1615459219335,1719.8125393513044) translate(173.6015625 175.23046874999997)"/><use xlink:href="#n" transform="matrix(1,0,0,1,943.1615459219335,1719.8125393513044) translate(245.203125 175.23046874999997)"/><use xlink:href="#o" transform="matrix(1,0,0,1,943.1615459219335,1719.8125393513044) translate(0 210.07734374999998)"/><use xlink:href="#c" transform="matrix(1,0,0,1,943.1615459219335,1719.8125393513044) translate(172.3359375 210.07734374999998)"/><use xlink:href="#p" transform="matrix(1,0,0,1,943.1615459219335,1719.8125393513044) translate(187.1015625 210.07734374999998)"/><use xlink:href="#q" transform="matrix(1,0,0,1,943.1615459219335,1719.8125393513044) translate(0 244.92421875)"/><use xlink:href="#c" transform="matrix(1,0,0,1,943.1615459219335,1719.8125393513044) translate(216.6328125 244.92421875)"/><use xlink:href="#p" transform="matrix(1,0,0,1,943.1615459219335,1719.8125393513044) translate(231.3984375 244.92421875)"/><use xlink:href="#r" transform="matrix(1,0,0,1,943.1615459219335,1719.8125393513044) translate(0 279.77109375)"/><use xlink:href="#c" transform="matrix(1,0,0,1,943.1615459219335,1719.8125393513044) translate(288.85546875 279.77109375)"/><use xlink:href="#p" transform="matrix(1,0,0,1,943.1615459219335,1719.8125393513044) translate(303.62109375 279.77109375)"/><use xlink:href="#s" transform="matrix(1,0,0,1,943.1615459219335,1719.8125393513044) translate(0 314.61796875000005)"/><use xlink:href="#c" transform="matrix(1,0,0,1,943.1615459219335,1719.8125393513044) translate(136.1484375 314.61796875000005)"/><use xlink:href="#t" transform="matrix(1,0,0,1,943.1615459219335,1719.8125393513044) translate(150.9140625 314.61796875000005)"/><path d="M46.94 1733.87h537.82v292H46.94z" stroke="#000" stroke-width="2" fill="#fff7a1"/><path d="M46.94 1781.8h537.82" stroke="#000" stroke-width="2" fill="none"/><use xlink:href="#u" transform="matrix(1,0,0,1,54.93867738146514,1741.8695706013043) translate(179.7181640625 25.603515625)"/><use xlink:href="#i" transform="matrix(1,0,0,1,58.93867738146514,1789.8125393513044) translate(0 36.11328125)"/><use xlink:href="#c" transform="matrix(1,0,0,1,58.93867738146514,1789.8125393513044) translate(151.62890625 36.11328125)"/><use xlink:href="#d" transform="matrix(1,0,0,1,58.93867738146514,1789.8125393513044) translate(166.39453125 36.11328125)"/><use xlink:href="#v" transform="matrix(1,0,0,1,58.93867738146514,1789.8125393513044) translate(213.1640625 36.11328125)"/><use xlink:href="#w" transform="matrix(1,0,0,1,58.93867738146514,1789.8125393513044) translate(0 70.96015625)"/><use xlink:href="#c" transform="matrix(1,0,0,1,58.93867738146514,1789.8125393513044) translate(131.1328125 70.96015625)"/><use xlink:href="#d" transform="matrix(1,0,0,1,58.93867738146514,1789.8125393513044) translate(145.8984375 70.96015625)"/><use xlink:href="#x" transform="matrix(1,0,0,1,58.93867738146514,1789.8125393513044) translate(192.66796875 70.96015625)"/><use xlink:href="#y" transform="matrix(1,0,0,1,58.93867738146514,1789.8125393513044) translate(0 105.80703125)"/><use xlink:href="#c" transform="matrix(1,0,0,1,58.93867738146514,1789.8125393513044) translate(175.0078125 105.80703125)"/><use xlink:href="#z" transform="matrix(1,0,0,1,58.93867738146514,1789.8125393513044) translate(189.7734375 105.80703125)"/><use xlink:href="#A" transform="matrix(1,0,0,1,58.93867738146514,1789.8125393513044) translate(0 140.65390624999998)"/><use xlink:href="#c" transform="matrix(1,0,0,1,58.93867738146514,1789.8125393513044) translate(111.3046875 140.65390624999998)"/><use xlink:href="#B" transform="matrix(1,0,0,1,58.93867738146514,1789.8125393513044) translate(126.0703125 140.65390624999998)"/><use xlink:href="#C" transform="matrix(1,0,0,1,58.93867738146514,1789.8125393513044) translate(0 175.50078125)"/><use xlink:href="#c" transform="matrix(1,0,0,1,58.93867738146514,1789.8125393513044) translate(200.68359375 175.50078125)"/><use xlink:href="#D" transform="matrix(1,0,0,1,58.93867738146514,1789.8125393513044) translate(215.44921875 175.50078125)"/><use xlink:href="#E" transform="matrix(1,0,0,1,58.93867738146514,1789.8125393513044) translate(0 210.34765625)"/><use xlink:href="#c" transform="matrix(1,0,0,1,58.93867738146514,1789.8125393513044) translate(139.20703125 210.34765625)"/><use xlink:href="#F" transform="matrix(1,0,0,1,58.93867738146514,1789.8125393513044) translate(153.97265625 210.34765625)"/><path d="M593.82 1881.85h-6.06v-3.95h6.06zm20.18 0h-12.1v-3.95H614zm20.18 0h-12.1v-3.95h12.1zm20.18 0h-12.1v-3.95h12.1zm199.13-17.5h-12.12v-3.95h12.1zm20.17 0h-12.1v-3.95h12.1zm20.18 0h-12.1v-3.95h12.1zm20.18 0h-12.1v-3.95h12.1zm14.13 0h-6.05v-3.95h6.06z" stroke="#000" stroke-width=".05"/><path d="M587.82 1881.85h-2.06v-3.95h2.06z"/><path stroke="#000" stroke-width=".05"/><path d="M930.16 1864.35h-2.05v-3.95h2.06z"/><path stroke="#000" stroke-width=".05"/><g><use xlink:href="#G" transform="matrix(1,0,0,1,584.8562927486527,1883.8695706013043) translate(0 16.216875)"/></g><g><use xlink:href="#H" transform="matrix(1,0,0,1,902.0780400625583,1838.1148245075542) translate(0 16.216875)"/></g><g><use xlink:href="#I" transform="matrix(1,0,0,1,661.8767043198916,1849.9969794554709) translate(0.0049999999999954525 21.74305555555555)"/><use xlink:href="#J" transform="matrix(1,0,0,1,661.8767043198916,1849.9969794554709) translate(125.09332465277777 21.74305555555555)"/><use xlink:href="#K" transform="matrix(1,0,0,1,661.8767043198916,1849.9969794554709) translate(34.05523871527777 54.331336805555544)"/><use xlink:href="#L" transform="matrix(1,0,0,1,661.8767043198916,1849.9969794554709) translate(52.40094184027777 54.331336805555544)"/></g><path d="M975.14 1034.03h537.83v362H975.14z" stroke="#000" stroke-width="2" fill="#fff7a1"/><path d="M975.14 1081.97h537.83" stroke="#000" stroke-width="2" fill="none"/><g><use xlink:href="#M" transform="matrix(1,0,0,1,983.1418809731946,1042.0260876958712) translate(202.21875 25.603515625)"/></g><g><use xlink:href="#f" transform="matrix(1,0,0,1,987.1418809731946,1089.9690564458713) translate(0 35.76640624999999)"/><use xlink:href="#c" transform="matrix(1,0,0,1,987.1418809731946,1089.9690564458713) translate(111.52734375 35.76640624999999)"/><use xlink:href="#d" transform="matrix(1,0,0,1,987.1418809731946,1089.9690564458713) translate(126.29296875 35.76640624999999)"/><use xlink:href="#v" transform="matrix(1,0,0,1,987.1418809731946,1089.9690564458713) translate(173.0625 35.76640624999999)"/><use xlink:href="#N" transform="matrix(1,0,0,1,987.1418809731946,1089.9690564458713) translate(0 70.61328124999999)"/><use xlink:href="#c" transform="matrix(1,0,0,1,987.1418809731946,1089.9690564458713) translate(106.95703125 70.61328124999999)"/><use xlink:href="#O" transform="matrix(1,0,0,1,987.1418809731946,1089.9690564458713) translate(121.72265625 70.61328124999999)"/><use xlink:href="#P" transform="matrix(1,0,0,1,987.1418809731946,1089.9690564458713) translate(0 105.46015624999998)"/><use xlink:href="#c" transform="matrix(1,0,0,1,987.1418809731946,1089.9690564458713) translate(48.78515625 105.46015624999998)"/><use xlink:href="#Q" transform="matrix(1,0,0,1,987.1418809731946,1089.9690564458713) translate(63.55078125 105.46015624999998)"/><use xlink:href="#R" transform="matrix(1,0,0,1,987.1418809731946,1089.9690564458713) translate(0 140.30703124999997)"/><use xlink:href="#c" transform="matrix(1,0,0,1,987.1418809731946,1089.9690564458713) translate(81.03515625 140.30703124999997)"/><use xlink:href="#Q" transform="matrix(1,0,0,1,987.1418809731946,1089.9690564458713) translate(95.80078125 140.30703124999997)"/><use xlink:href="#S" transform="matrix(1,0,0,1,987.1418809731946,1089.9690564458713) translate(0 175.15390624999998)"/><use xlink:href="#c" transform="matrix(1,0,0,1,987.1418809731946,1089.9690564458713) translate(158.34375 175.15390624999998)"/><use xlink:href="#T" transform="matrix(1,0,0,1,987.1418809731946,1089.9690564458713) translate(173.109375 175.15390624999998)"/><use xlink:href="#U" transform="matrix(1,0,0,1,987.1418809731946,1089.9690564458713) translate(0 210.00078125)"/><use xlink:href="#c" transform="matrix(1,0,0,1,987.1418809731946,1089.9690564458713) translate(92.5546875 210.00078125)"/><use xlink:href="#V" transform="matrix(1,0,0,1,987.1418809731946,1089.9690564458713) translate(107.3203125 210.00078125)"/><use xlink:href="#W" transform="matrix(1,0,0,1,987.1418809731946,1089.9690564458713) translate(0 244.84765625)"/><use xlink:href="#c" transform="matrix(1,0,0,1,987.1418809731946,1089.9690564458713) translate(57.9375 244.84765625)"/><use xlink:href="#Q" transform="matrix(1,0,0,1,987.1418809731946,1089.9690564458713) translate(72.703125 244.84765625)"/><use xlink:href="#X" transform="matrix(1,0,0,1,987.1418809731946,1089.9690564458713) translate(0 279.69453125)"/><use xlink:href="#c" transform="matrix(1,0,0,1,987.1418809731946,1089.9690564458713) translate(156.2578125 279.69453125)"/><use xlink:href="#t" transform="matrix(1,0,0,1,987.1418809731946,1089.9690564458713) translate(171.0234375 279.69453125)"/></g><path d="M1889.72 1733.87h537.83v257h-537.83z" stroke="#000" stroke-width="2" fill="#fff7a1"/><path d="M1889.72 1781.8h537.83" stroke="#000" stroke-width="2" fill="none"/><g><use xlink:href="#Y" transform="matrix(1,0,0,1,1897.7195561367353,1741.8695706013043) translate(201.922265625 25.603515625)"/></g><g><use xlink:href="#m" transform="matrix(1,0,0,1,1901.7195561367353,1789.8125393513044) translate(0 36.036718750000006)"/><use xlink:href="#c" transform="matrix(1,0,0,1,1901.7195561367353,1789.8125393513044) translate(112.06640625 36.036718750000006)"/><use xlink:href="#d" transform="matrix(1,0,0,1,1901.7195561367353,1789.8125393513044) translate(126.83203125 36.036718750000006)"/><use xlink:href="#v" transform="matrix(1,0,0,1,1901.7195561367353,1789.8125393513044) translate(173.6015625 36.036718750000006)"/><use xlink:href="#Z" transform="matrix(1,0,0,1,1901.7195561367353,1789.8125393513044) translate(0 70.88359375)"/><use xlink:href="#c" transform="matrix(1,0,0,1,1901.7195561367353,1789.8125393513044) translate(91.5703125 70.88359375)"/><use xlink:href="#d" transform="matrix(1,0,0,1,1901.7195561367353,1789.8125393513044) translate(106.3359375 70.88359375)"/><use xlink:href="#aa" transform="matrix(1,0,0,1,1901.7195561367353,1789.8125393513044) translate(153.10546875 70.88359375)"/><use xlink:href="#ab" transform="matrix(1,0,0,1,1901.7195561367353,1789.8125393513044) translate(0 105.73046875)"/><use xlink:href="#c" transform="matrix(1,0,0,1,1901.7195561367353,1789.8125393513044) translate(135.4453125 105.73046875)"/><use xlink:href="#z" transform="matrix(1,0,0,1,1901.7195561367353,1789.8125393513044) translate(150.2109375 105.73046875)"/><use xlink:href="#ac" transform="matrix(1,0,0,1,1901.7195561367353,1789.8125393513044) translate(0 140.57734375)"/><use xlink:href="#c" transform="matrix(1,0,0,1,1901.7195561367353,1789.8125393513044) translate(115.078125 140.57734375)"/><use xlink:href="#B" transform="matrix(1,0,0,1,1901.7195561367353,1789.8125393513044) translate(129.84375 140.57734375)"/><use xlink:href="#ad" transform="matrix(1,0,0,1,1901.7195561367353,1789.8125393513044) translate(0 175.42421875)"/><use xlink:href="#ae" transform="matrix(1,0,0,1,1901.7195561367353,1789.8125393513044) translate(293.63671875 175.42421875)"/></g><path d="M965.02 2343.34h537.83v292H965.02z" stroke="#000" stroke-width="2" fill="#fff7a1"/><path d="M965.02 2391.28h537.83" stroke="#000" stroke-width="2" fill="none"/><g><use xlink:href="#af" transform="matrix(1,0,0,1,973.0237851756107,2351.3363190255095) translate(178.37109375 25.603515625)"/></g><g><use xlink:href="#k" transform="matrix(1,0,0,1,977.0237851756107,2399.2792877755096) translate(0 36.11328125)"/><use xlink:href="#c" transform="matrix(1,0,0,1,977.0237851756107,2399.2792877755096) translate(154.078125 36.11328125)"/><use xlink:href="#d" transform="matrix(1,0,0,1,977.0237851756107,2399.2792877755096) translate(168.84375 36.11328125)"/><use xlink:href="#v" transform="matrix(1,0,0,1,977.0237851756107,2399.2792877755096) translate(215.61328125 36.11328125)"/><use xlink:href="#ag" transform="matrix(1,0,0,1,977.0237851756107,2399.2792877755096) translate(0 70.96015625)"/><use xlink:href="#c" transform="matrix(1,0,0,1,977.0237851756107,2399.2792877755096) translate(133.58203125 70.96015625)"/><use xlink:href="#d" transform="matrix(1,0,0,1,977.0237851756107,2399.2792877755096) translate(148.34765625 70.96015625)"/><use xlink:href="#ah" transform="matrix(1,0,0,1,977.0237851756107,2399.2792877755096) translate(195.1171875 70.96015625)"/><use xlink:href="#ai" transform="matrix(1,0,0,1,977.0237851756107,2399.2792877755096) translate(0 105.80703125)"/><use xlink:href="#c" transform="matrix(1,0,0,1,977.0237851756107,2399.2792877755096) translate(125.7890625 105.80703125)"/><use xlink:href="#aj" transform="matrix(1,0,0,1,977.0237851756107,2399.2792877755096) translate(140.5546875 105.80703125)"/><use xlink:href="#ak" transform="matrix(1,0,0,1,977.0237851756107,2399.2792877755096) translate(0 140.65390624999998)"/><use xlink:href="#c" transform="matrix(1,0,0,1,977.0237851756107,2399.2792877755096) translate(100.5 140.65390624999998)"/><use xlink:href="#aj" transform="matrix(1,0,0,1,977.0237851756107,2399.2792877755096) translate(115.265625 140.65390624999998)"/><use xlink:href="#al" transform="matrix(1,0,0,1,977.0237851756107,2399.2792877755096) translate(0 175.50078125)"/><use xlink:href="#c" transform="matrix(1,0,0,1,977.0237851756107,2399.2792877755096) translate(169.4296875 175.50078125)"/><use xlink:href="#am" transform="matrix(1,0,0,1,977.0237851756107,2399.2792877755096) translate(184.1953125 175.50078125)"/><use xlink:href="#an" transform="matrix(1,0,0,1,977.0237851756107,2399.2792877755096) translate(0 210.34765625)"/><use xlink:href="#c" transform="matrix(1,0,0,1,977.0237851756107,2399.2792877755096) translate(159.85546875 210.34765625)"/><use xlink:href="#t" transform="matrix(1,0,0,1,977.0237851756107,2399.2792877755096) translate(174.62109375 210.34765625)"/></g><path d="M1246.03 1660.87h-3.95v-6.04h3.95zm0-14.1h-3.95v-12.1h3.95zm0-20.14h-3.95v-12.1h3.95zm0-20.14h-3.95v-12.1h3.95zm0-20.15h-3.95v-12.1h3.95zm0-20.15h-3.95v-12.08h3.95zm0-20.14h-3.95v-2.53h3.95zm0-29.7h-3.95v-2.53h3.95zm0-10.58h-3.95v-12.1h3.95zm0-20.14h-3.95v-12.1h3.95zm0-20.15h-3.95v-12.1h3.95zm0-20.15h-3.95v-12.08h3.95zm0-20.14h-3.95v-12.08h3.95zm0-20.13h-3.95v-6.04h3.95z" stroke="#000" stroke-width=".05"/><path d="M1246.03 1399.08h-3.95v-2.05h3.95z"/><path stroke="#000" stroke-width=".05"/><path d="M1246.03 1662.87h-3.95v-2.05h3.95z"/><path stroke="#000" stroke-width=".05"/><g><use xlink:href="#G" transform="matrix(1,0,0,1,1214.2387281946442,1396.8987146489962) translate(0 16.216875)"/></g><g><use xlink:href="#H" transform="matrix(1,0,0,1,1252.054675460269,1642.7421975544294) translate(0 16.216875)"/></g><g><use xlink:href="#ao" transform="matrix(1,0,0,1,1190.6011706859636,1516.3693786277545) translate(0.005000000000002558 21.74305555555555)"/><use xlink:href="#ap" transform="matrix(1,0,0,1,1190.6011706859636,1516.3693786277545) translate(58.362747395833324 21.74305555555555)"/></g><path d="M1886.72 1864.35h-6.13v-3.95h6.12zm-14.3 0h-12.25v-3.95h12.25zm-20.42 0h-12.25v-3.95H1852zm-20.42 0h-12.26v-3.95h12.26zm-20.43 0h-12.25v-3.95h12.25zm-20.42 0h-12.25v-3.95h12.25zm-122.54 0h-12.26v-3.95h12.25zm-20.43 0h-12.26v-3.95h12.27zm-20.43 0h-12.25v-3.95h12.24zm-20.42 0h-12.25v-3.95h12.25zm-20.42 0h-12.26v-3.95h12.26zm-20.42 0h-6.13v-3.95h6.13z" stroke="#000" stroke-width=".05"/><path d="M1888.72 1864.35h-2.05v-3.95h2.05z"/><path stroke="#000" stroke-width=".05"/><path d="M1560 1864.35h-2.05v-3.95h2.05z"/><path stroke="#000" stroke-width=".05"/><g><use xlink:href="#G" transform="matrix(1,0,0,1,1867.8115825039229,1838.1148245075542) translate(0 16.216875)"/></g><g><use xlink:href="#H" transform="matrix(1,0,0,1,1557.864299062558,1866.3695706013043) translate(0 16.216875)"/></g><g><use xlink:href="#ao" transform="matrix(1,0,0,1,1669.6281141230843,1848.791120080471) translate(0.005000000000002558 21.74305555555555)"/><use xlink:href="#aq" transform="matrix(1,0,0,1,1669.6281141230843,1848.791120080471) translate(58.362747395833324 21.74305555555555)"/></g><path d="M1235.9 2340.34h-3.94v-5.93h3.95zm0-13.83h-3.94v-11.84h3.95zm0-19.74h-3.94v-11.84h3.95zm0-19.74h-3.94v-11.85h3.95zm0-19.75h-3.94v-11.85h3.95zm0-19.75h-3.94v-11.85h3.95zm0-19.74h-3.94v-11.85h3.95zm0-39.5h-3.94v-11.85h3.95zm0-19.75h-3.94v-11.85h3.95zm0-19.75h-3.94v-11.84h3.95zm0-19.74h-3.94v-11.85h3.95zm0-19.75h-3.94v-11.86h3.95zm0-19.76h-3.94v-11.85h3.95zm0-19.75h-3.94v-5.93h3.95z" stroke="#000" stroke-width=".05"/><path d="M1235.9 2342.34h-3.94v-2.06h3.95z"/><path stroke="#000" stroke-width=".05"/><path d="M1235.9 2063.92h-3.94v-2.05h3.95z"/><path stroke="#000" stroke-width=".05"/><g><use xlink:href="#G" transform="matrix(1,0,0,1,1241.936579662685,2322.2089459786343) translate(0 16.216875)"/></g><g><use xlink:href="#H" transform="matrix(1,0,0,1,1197.769567943935,2061.742197554429) translate(0 16.216875)"/></g><g><use xlink:href="#ao" transform="matrix(1,0,0,1,1160.5866447668518,2188.5244942925733) translate(0.0049999999999954525 21.74305555555555)"/><use xlink:href="#ar" transform="matrix(1,0,0,1,1160.5866447668518,2188.5244942925733) translate(58.36274739583332 21.74305555555555)"/></g><defs><path fill="#111827" d="M135 0v-1490h980v253H440v416h609v249H440V0H135" id="as"/><path fill="#111827" d="M440 22C227 22 68-92 68-313c0-250 202-322 422-343 195-21 271-24 271-105 0-95-63-149-175-149-116 0-187 57-211 129l-275-46c57-194 237-305 487-305 240 0 474 108 474 379V0H777v-155h-10C713-51 605 22 440 22zm85-211c140 0 238-93 238-211v-121c-37 26-156 42-222 51-111 16-185 59-185 149 0 87 70 132 169 132" id="at"/><path fill="#111827" d="M628 22C291 22 81-210 81-554c0-346 210-578 547-578 265 0 455 142 497 372l-279 52c-25-116-99-188-215-188-160 0-244 139-244 341 0 200 84 341 244 341 116 0 193-74 217-195l279 51C1085-123 896 22 628 22" id="au"/><path fill="#111827" d="M683-1118v229H474v562c0 71 29 104 102 104 23 0 73-7 95-13l43 225C647 9 580 16 520 16 296 16 174-96 174-301v-588H20v-229h154v-266h300v266h209" id="av"/><path fill="#111827" d="M975 0v231H0V0h975" id="aw"/><path fill="#111827" d="M440-1490V0H135v-1490h305" id="ax"/><path fill="#111827" d="M428-647V0H128v-1118h283l4 231c63-156 176-245 348-245 232 0 384 159 384 421V0H847v-659c0-139-76-222-202-222-128 0-217 86-217 234" id="ay"/><path fill="#111827" d="M443 0L31-1118h319c90 293 199 572 268 885 66-313 175-593 264-885h315L784 0H443" id="az"/><path fill="#111827" d="M633 22C291 22 81-200 81-553c0-345 210-579 537-579 292 0 525 185 525 567v84H378c7 183 109 277 260 277 105 0 184-46 216-132l272 51C1071-99 893 22 633 22zM380-669h474c-15-146-94-237-233-237-143 0-229 99-241 237" id="aA"/><path fill="#111827" d="M628 22C291 22 81-210 81-554c0-346 210-578 547-578 336 0 547 232 547 578 0 344-211 576-547 576zm0-236c160 0 242-146 242-341 0-197-82-341-242-341S387-753 387-555c0 195 81 341 241 341" id="aB"/><path fill="#111827" d="M128 0v-1118h290v195h12c54-169 184-238 367-200v268c-27-8-86-15-130-15-138 0-239 95-239 234V0H128" id="aC"/><path fill="#111827" d="M120 396l69-226c123 42 245 23 254-107l8-60L31-1118h319c87 288 199 559 259 872 72-308 185-583 277-872h315L726 132c-68 181-186 294-410 294-79 0-153-13-196-30" id="aD"/><path fill="#111827" d="M75-1237v-253h1217v253H837V0H531v-1237H75" id="aE"/><path fill="#111827" d="M572 22C302 22 117-98 78-306l279-48c29 105 101 156 224 156 114 0 185-48 185-115 0-118-228-130-337-155-215-49-322-150-322-317 0-215 187-347 470-347 265 0 424 116 466 298l-266 47c-24-76-87-130-196-130-98 0-174 46-174 113 0 56 38 95 144 117l201 40c216 44 320 143 320 302 0 220-207 367-500 367" id="aF"/><path fill="#111827" d="M128 0v-1118h300V0H128zm150-1264c-91 0-165-68-165-154 0-85 74-154 165-154 90 0 165 69 165 154 0 86-75 154-165 154" id="aG"/><g id="a"><use transform="matrix(0.012890625000000001,0,0,0.012890625000000001,0,0)" xlink:href="#as"/><use transform="matrix(0.012890625000000001,0,0,0.012890625000000001,15.05625,0)" xlink:href="#at"/><use transform="matrix(0.012890625000000001,0,0,0.012890625000000001,30.383203125,0)" xlink:href="#au"/><use transform="matrix(0.012890625000000001,0,0,0.012890625000000001,45.91640625,0)" xlink:href="#av"/><use transform="matrix(0.012890625000000001,0,0,0.012890625000000001,55.584375,0)" xlink:href="#aw"/><use transform="matrix(0.012890625000000001,0,0,0.012890625000000001,69.04218750000001,0)" xlink:href="#ax"/><use transform="matrix(0.012890625000000001,0,0,0.012890625000000001,76.45429687500001,0)" xlink:href="#ay"/><use transform="matrix(0.012890625000000001,0,0,0.012890625000000001,92.43867187500001,0)" xlink:href="#az"/><use transform="matrix(0.012890625000000001,0,0,0.012890625000000001,107.79140625000004,0)" xlink:href="#aA"/><use transform="matrix(0.012890625000000001,0,0,0.012890625000000001,123.51796875000004,0)" xlink:href="#ay"/><use transform="matrix(0.012890625000000001,0,0,0.012890625000000001,139.95351562500002,0)" xlink:href="#av"/><use transform="matrix(0.012890625000000001,0,0,0.012890625000000001,149.36367187500002,0)" xlink:href="#aB"/><use transform="matrix(0.012890625000000001,0,0,0.012890625000000001,165.55429687500003,0)" xlink:href="#aC"/><use transform="matrix(0.012890625000000001,0,0,0.012890625000000001,176.71757812500002,0)" xlink:href="#aD"/><use transform="matrix(0.012890625000000001,0,0,0.012890625000000001,190.52343750000003,0)" xlink:href="#aw"/><use transform="matrix(0.012890625000000001,0,0,0.012890625000000001,201.59648437500002,0)" xlink:href="#aE"/><use transform="matrix(0.012890625000000001,0,0,0.012890625000000001,217.72265625000003,0)" xlink:href="#aC"/><use transform="matrix(0.012890625000000001,0,0,0.012890625000000001,228.11249999999998,0)" xlink:href="#at"/><use transform="matrix(0.012890625000000001,0,0,0.012890625000000001,243.43945312499997,0)" xlink:href="#ay"/><use transform="matrix(0.012890625000000001,0,0,0.012890625000000001,259.875,0)" xlink:href="#aF"/><use transform="matrix(0.012890625000000001,0,0,0.012890625000000001,274.660546875,0)" xlink:href="#at"/><use transform="matrix(0.012890625000000001,0,0,0.012890625000000001,289.9875,0)" xlink:href="#au"/><use transform="matrix(0.012890625000000001,0,0,0.012890625000000001,305.520703125,0)" xlink:href="#av"/><use transform="matrix(0.012890625000000001,0,0,0.012890625000000001,315.188671875,0)" xlink:href="#aG"/><use transform="matrix(0.012890625000000001,0,0,0.012890625000000001,322.34296875,0)" xlink:href="#aB"/><use transform="matrix(0.012890625000000001,0,0,0.012890625000000001,338.53359375,0)" xlink:href="#ay"/><use transform="matrix(0.012890625000000001,0,0,0.012890625000000001,354.969140625,0)" xlink:href="#aF"/></g><path fill="#424242" d="M683-1118v229H474v562c0 71 29 104 102 104 23 0 73-7 95-13l43 225C647 9 580 16 520 16 296 16 174-96 174-301v-588H20v-229h154v-266h300v266h209" id="aH"/><path fill="#424242" d="M128 0v-1118h290v195h12c54-169 184-238 367-200v268c-27-8-86-15-130-15-138 0-239 95-239 234V0H128" id="aI"/><path fill="#424242" d="M440 22C227 22 68-92 68-313c0-250 202-322 422-343 195-21 271-24 271-105 0-95-63-149-175-149-116 0-187 57-211 129l-275-46c57-194 237-305 487-305 240 0 474 108 474 379V0H777v-155h-10C713-51 605 22 440 22zm85-211c140 0 238-93 238-211v-121c-37 26-156 42-222 51-111 16-185 59-185 149 0 87 70 132 169 132" id="aJ"/><path fill="#424242" d="M428-647V0H128v-1118h283l4 231c63-156 176-245 348-245 232 0 384 159 384 421V0H847v-659c0-139-76-222-202-222-128 0-217 86-217 234" id="aK"/><path fill="#424242" d="M572 22C302 22 117-98 78-306l279-48c29 105 101 156 224 156 114 0 185-48 185-115 0-118-228-130-337-155-215-49-322-150-322-317 0-215 187-347 470-347 265 0 424 116 466 298l-266 47c-24-76-87-130-196-130-98 0-174 46-174 113 0 56 38 95 144 117l201 40c216 44 320 143 320 302 0 220-207 367-500 367" id="aL"/><path fill="#424242" d="M628 22C291 22 81-210 81-554c0-346 210-578 547-578 265 0 455 142 497 372l-279 52c-25-116-99-188-215-188-160 0-244 139-244 341 0 200 84 341 244 341 116 0 193-74 217-195l279 51C1085-123 896 22 628 22" id="aM"/><path fill="#424242" d="M128 0v-1118h300V0H128zm150-1264c-91 0-165-68-165-154 0-85 74-154 165-154 90 0 165 69 165 154 0 86-75 154-165 154" id="aN"/><path fill="#424242" d="M628 22C291 22 81-210 81-554c0-346 210-578 547-578 336 0 547 232 547 578 0 344-211 576-547 576zm0-236c160 0 242-146 242-341 0-197-82-341-242-341S387-753 387-555c0 195 81 341 241 341" id="aO"/><path fill="#424242" d="M975 0v231H0V0h975" id="aP"/><path fill="#424242" d="M537 19C279 19 81-185 81-557c0-382 206-575 454-575 190 0 278 113 318 202h10v-560h300V0H868v-179h-15C812-89 719 19 537 19zm92-241c153 0 240-134 240-336 0-203-86-334-240-334-158 0-240 138-240 334 0 197 84 336 240 336" id="aQ"/><g id="b"><use transform="matrix(0.01171875,0,0,0.01171875,0,0)" xlink:href="#aH"/><use transform="matrix(0.01171875,0,0,0.01171875,8.7890625,0)" xlink:href="#aI"/><use transform="matrix(0.01171875,0,0,0.01171875,18.234375,0)" xlink:href="#aJ"/><use transform="matrix(0.01171875,0,0,0.01171875,32.16796875,0)" xlink:href="#aK"/><use transform="matrix(0.01171875,0,0,0.01171875,47.109375,0)" xlink:href="#aL"/><use transform="matrix(0.01171875,0,0,0.01171875,60.55078125,0)" xlink:href="#aJ"/><use transform="matrix(0.01171875,0,0,0.01171875,74.484375,0)" xlink:href="#aM"/><use transform="matrix(0.01171875,0,0,0.01171875,88.60546875,0)" xlink:href="#aH"/><use transform="matrix(0.01171875,0,0,0.01171875,97.39453125,0)" xlink:href="#aN"/><use transform="matrix(0.01171875,0,0,0.01171875,103.8984375,0)" xlink:href="#aO"/><use transform="matrix(0.01171875,0,0,0.01171875,118.6171875,0)" xlink:href="#aK"/><use transform="matrix(0.01171875,0,0,0.01171875,133.55859375,0)" xlink:href="#aP"/><use transform="matrix(0.01171875,0,0,0.01171875,145.359375,0)" xlink:href="#aN"/><use transform="matrix(0.01171875,0,0,0.01171875,151.86328125,0)" xlink:href="#aQ"/></g><path fill="#424242" d="M342-723c-98 0-173-75-173-172s75-172 173-172 173 75 173 172-75 172-173 172zm0 742c-98 0-173-75-173-172s75-172 173-172 173 75 173 172S440 19 342 19" id="aR"/><use transform="matrix(0.01171875,0,0,0.01171875,0,0)" xlink:href="#aR" id="c"/><path fill="#424242" d="M370-1490V0H180v-1490h190" id="aS"/><path fill="#424242" d="M180 0v-1490h224l606 953c40 63 108 177 176 312-27-437-7-821-13-1265h190V0h-226C860-448 622-778 356-1262c27 476 11 792 15 1262H180" id="aT"/><path fill="#424242" d="M98-1322v-168h1126v168H757V0H567v-1322H98" id="aU"/><g id="d"><use transform="matrix(0.01171875,0,0,0.01171875,0,0)" xlink:href="#aS"/><use transform="matrix(0.01171875,0,0,0.01171875,6.4453125,0)" xlink:href="#aT"/><use transform="matrix(0.01171875,0,0,0.01171875,24.52734375,0)" xlink:href="#aU"/></g><path fill="#424242" d="M750 279c-286 0-388-117-388-391v-228c1-158-59-222-218-220v-182c158 3 218-60 218-218v-230c0-273 102-391 388-391v151c-169-1-222 74-222 243v286c0 117-37 206-205 240v20c168 35 205 125 205 242v284c0 169 52 245 222 245v149" id="aV"/><path fill="#424242" d="M180 0v-1490h510c348 0 508 209 508 474 0 266-160 477-507 477H370V0H180zm190-706h312c236 0 327-133 327-310 0-176-91-307-329-307H370v617" id="aW"/><path fill="#424242" d="M180 0v-1490h190c0 262 1 526-3 784 217-279 467-523 702-784h249L716-845 1319 0h-225L585-716 370-489V0H180" id="aX"/><path fill="#424242" d="M123 279V130c170 0 222-76 222-245v-284c0-116 37-207 204-242v-20c-167-34-204-123-204-240v-286c0-168-52-243-222-243v-151c285 0 387 118 387 391v230c-1 158 57 219 219 219v180c-164 1-219 64-219 221v228c0 274-102 391-387 391" id="aY"/><g id="e"><use transform="matrix(0.01171875,0,0,0.01171875,0,0)" xlink:href="#aV"/><use transform="matrix(0.01171875,0,0,0.01171875,10.23046875,0)" xlink:href="#aW"/><use transform="matrix(0.01171875,0,0,0.01171875,25.55859375,0)" xlink:href="#aX"/><use transform="matrix(0.01171875,0,0,0.01171875,41.68359375,0)" xlink:href="#aY"/></g><path fill="#424242" d="M633 22C291 22 81-200 81-553c0-345 210-579 537-579 292 0 525 185 525 567v84H378c7 183 109 277 260 277 105 0 184-46 216-132l272 51C1071-99 893 22 633 22zM380-669h474c-15-146-94-237-233-237-143 0-229 99-241 237" id="aZ"/><path fill="#424242" d="M128 0v-1490h300v802h17l366-430h347L740-633 1179 0H826L514-456l-86 97V0H128" id="ba"/><path fill="#424242" d="M120 396l69-226c123 42 245 23 254-107l8-60L31-1118h319c87 288 199 559 259 872 72-308 185-583 277-872h315L726 132c-68 181-186 294-410 294-79 0-153-13-196-30" id="bb"/><g id="f"><use transform="matrix(0.01171875,0,0,0.01171875,0,0)" xlink:href="#aQ"/><use transform="matrix(0.01171875,0,0,0.01171875,15.12890625,0)" xlink:href="#aJ"/><use transform="matrix(0.01171875,0,0,0.01171875,29.0625,0)" xlink:href="#aH"/><use transform="matrix(0.01171875,0,0,0.01171875,37.6171875,0)" xlink:href="#aZ"/><use transform="matrix(0.01171875,0,0,0.01171875,51.9140625,0)" xlink:href="#aP"/><use transform="matrix(0.01171875,0,0,0.01171875,64.1484375,0)" xlink:href="#ba"/><use transform="matrix(0.01171875,0,0,0.01171875,77.53125,0)" xlink:href="#aZ"/><use transform="matrix(0.01171875,0,0,0.01171875,91.39453125,0)" xlink:href="#bb"/></g><path fill="#424242" d="M180 0v-1490h901v168H370v510h643v168H370V0H180" id="bc"/><path fill="#424242" d="M798-719v166H144v-166h654" id="bd"/><path fill="#424242" d="M1181-520L237-44v-194l712-338v-12L237-926v-196l944 476v126" id="be"/><g id="g"><use transform="matrix(0.01171875,0,0,0.01171875,0,0)" xlink:href="#aV"/><use transform="matrix(0.01171875,0,0,0.01171875,10.23046875,0)" xlink:href="#bc"/><use transform="matrix(0.01171875,0,0,0.01171875,24.3984375,0)" xlink:href="#aX"/><use transform="matrix(0.01171875,0,0,0.01171875,37.93359375,0)" xlink:href="#bd"/><use transform="matrix(0.01171875,0,0,0.01171875,48.97265625,0)" xlink:href="#be"/></g><path fill="#424242" d="M577 24c-279 0-473-224-473-580 0-354 195-576 474-576 218 0 287 134 324 193h14v-551h180V0H922v-173h-20C865-111 790 24 577 24zm27-161c203 0 314-172 314-421 0-247-108-413-314-413-212 0-317 181-317 413 0 235 108 421 317 421" id="bf"/><path fill="#424242" d="M158 0v-1118h180V0H158zm91-1301c-68 0-125-53-125-119s57-119 125-119c69 0 126 53 126 119s-57 119-126 119" id="bg"/><path fill="#424242" d="M158 0v-1118h175l1 205c55-151 181-225 313-225 147 0 245 90 285 228 53-141 190-228 352-228 194 0 352 125 352 384V0h-181v-749c0-161-105-225-225-225-151 0-243 103-243 244V0H807v-767c0-124-93-207-219-207-131 0-250 92-250 270V0H158" id="bh"/><path fill="#424242" d="M934 0v166H0V0h934" id="bi"/><path fill="#424242" d="M471 26C259 26 90-98 90-318c0-256 228-303 435-329 202-27 287-16 287-108 0-139-79-219-234-219-161 0-248 86-283 164l-173-57c86-203 278-265 451-265 150 0 419 46 419 395V0H815v-152h-12C765-73 660 26 471 26zm31-159c199 0 310-134 310-271v-155c-30 35-226 55-295 64-131 17-246 59-246 186 0 116 97 176 231 176" id="bj"/><path fill="#424242" d="M598-1118v154H368v674c0 100 37 144 132 144 23 0 62-6 92-12L629-6c-37 13-88 20-134 20-193 0-307-107-307-290v-688H20v-154h168v-266h180v266h230" id="bk"/><path fill="#424242" d="M628 24c-324 0-524-230-524-574 0-343 198-582 503-582 237 0 487 146 487 559v75H286c9 234 145 362 343 362 132 0 231-58 273-172l174 48C1024-91 857 24 628 24zM287-650h624c-17-190-120-322-304-322-192 0-309 151-320 322" id="bl"/><g id="h"><use transform="matrix(0.01171875,0,0,0.01171875,0,0)" xlink:href="#bf"/><use transform="matrix(0.01171875,0,0,0.01171875,14.6953125,0)" xlink:href="#bg"/><use transform="matrix(0.01171875,0,0,0.01171875,20.5078125,0)" xlink:href="#bh"/><use transform="matrix(0.01171875,0,0,0.01171875,41.53125,0)" xlink:href="#bi"/><use transform="matrix(0.01171875,0,0,0.01171875,52.4765625,0)" xlink:href="#bf"/><use transform="matrix(0.01171875,0,0,0.01171875,67.171875,0)" xlink:href="#bj"/><use transform="matrix(0.01171875,0,0,0.01171875,80.6484375,0)" xlink:href="#bk"/><use transform="matrix(0.01171875,0,0,0.01171875,88.265625,0)" xlink:href="#bl"/><use transform="matrix(0.01171875,0,0,0.01171875,101.98828125,0)" xlink:href="#aY"/></g><path fill="#424242" d="M128 418v-1536h295v188h14c41-89 129-202 319-202 248 0 453 193 453 575 0 372-197 576-455 576-183 0-275-108-317-198h-9v597H128zm534-640c156 0 240-139 240-336 0-196-83-334-240-334-154 0-241 131-241 334 0 202 88 336 241 336" id="bm"/><path fill="#424242" d="M513 14c-232 0-385-159-385-421v-711h300v659c0 139 76 222 202 222 127 0 217-86 217-234v-647h301V0H864l-4-232C797-74 683 14 513 14" id="bn"/><g id="i"><use transform="matrix(0.01171875,0,0,0.01171875,0,0)" xlink:href="#bm"/><use transform="matrix(0.01171875,0,0,0.01171875,15.12890625,0)" xlink:href="#aI"/><use transform="matrix(0.01171875,0,0,0.01171875,24.31640625,0)" xlink:href="#aO"/><use transform="matrix(0.01171875,0,0,0.01171875,39.03515625,0)" xlink:href="#aQ"/><use transform="matrix(0.01171875,0,0,0.01171875,54.1640625,0)" xlink:href="#bn"/><use transform="matrix(0.01171875,0,0,0.01171875,69.10546875,0)" xlink:href="#aM"/><use transform="matrix(0.01171875,0,0,0.01171875,83.2265625,0)" xlink:href="#aH"/><use transform="matrix(0.01171875,0,0,0.01171875,92.015625,0)" xlink:href="#aP"/><use transform="matrix(0.01171875,0,0,0.01171875,104.25,0)" xlink:href="#ba"/><use transform="matrix(0.01171875,0,0,0.01171875,117.6328125,0)" xlink:href="#aZ"/><use transform="matrix(0.01171875,0,0,0.01171875,131.49609375,0)" xlink:href="#bb"/></g><path fill="#424242" d="M158 418v-1536h174v179h20c37-59 106-193 324-193 279 0 474 222 474 576 0 356-194 580-473 580-213 0-288-135-325-197h-14v591H158zm492-555c209 0 317-186 317-421 0-232-105-413-317-413-206 0-314 166-314 413 0 249 111 421 314 421" id="bo"/><path fill="#424242" d="M158 0v-1118h174v172h12c41-113 157-188 290-188 26 0 70 2 91 3v181c-11-2-60-10-108-10-161 0-279 109-279 260V0H158" id="bp"/><path fill="#424242" d="M613 24c-304 0-509-231-509-576 0-350 205-580 509-580 305 0 511 230 511 580 0 345-206 576-511 576zm0-161c226 0 329-195 329-415 0-222-103-419-329-419-223 0-326 196-326 419 0 220 103 415 326 415" id="bq"/><path fill="#424242" d="M537 14c-226 0-379-139-379-422v-710h180v695c0 172 97 275 253 275 160 0 281-109 281-300v-670h181V0H879v-209C806-46 684 14 537 14" id="br"/><path fill="#424242" d="M613 24c-304 0-509-231-509-576 0-350 205-580 509-580 216 0 392 114 453 309l-173 49c-33-115-133-197-280-197-223 0-326 196-326 419 0 220 103 415 326 415 150 0 252-85 285-206l172 49C1010-95 832 24 613 24" id="bs"/><g id="j"><use transform="matrix(0.01171875,0,0,0.01171875,0,0)" xlink:href="#bf"/><use transform="matrix(0.01171875,0,0,0.01171875,14.6953125,0)" xlink:href="#bg"/><use transform="matrix(0.01171875,0,0,0.01171875,20.5078125,0)" xlink:href="#bh"/><use transform="matrix(0.01171875,0,0,0.01171875,41.53125,0)" xlink:href="#bi"/><use transform="matrix(0.01171875,0,0,0.01171875,53.28515625,0)" xlink:href="#bo"/><use transform="matrix(0.01171875,0,0,0.01171875,67.98046875,0)" xlink:href="#bp"/><use transform="matrix(0.01171875,0,0,0.01171875,76.6171875,0)" xlink:href="#bq"/><use transform="matrix(0.01171875,0,0,0.01171875,91.0078125,0)" xlink:href="#bf"/><use transform="matrix(0.01171875,0,0,0.01171875,105.703125,0)" xlink:href="#br"/><use transform="matrix(0.01171875,0,0,0.01171875,119.89453125,0)" xlink:href="#bs"/><use transform="matrix(0.01171875,0,0,0.01171875,133.60546875,0)" xlink:href="#bk"/><use transform="matrix(0.01171875,0,0,0.01171875,141.45703125,0)" xlink:href="#aY"/></g><path fill="#424242" d="M428-1490V0H128v-1490h300" id="bt"/><g id="k"><use transform="matrix(0.01171875,0,0,0.01171875,0,0)" xlink:href="#bt"/><use transform="matrix(0.01171875,0,0,0.01171875,6.50390625,0)" xlink:href="#aO"/><use transform="matrix(0.01171875,0,0,0.01171875,21.22265625,0)" xlink:href="#aM"/><use transform="matrix(0.01171875,0,0,0.01171875,35.578125,0)" xlink:href="#aJ"/><use transform="matrix(0.01171875,0,0,0.01171875,49.51171875,0)" xlink:href="#aH"/><use transform="matrix(0.01171875,0,0,0.01171875,58.30078125,0)" xlink:href="#aN"/><use transform="matrix(0.01171875,0,0,0.01171875,64.8046875,0)" xlink:href="#aO"/><use transform="matrix(0.01171875,0,0,0.01171875,79.5234375,0)" xlink:href="#aK"/><use transform="matrix(0.01171875,0,0,0.01171875,94.46484375,0)" xlink:href="#aP"/><use transform="matrix(0.01171875,0,0,0.01171875,106.69921875,0)" xlink:href="#ba"/><use transform="matrix(0.01171875,0,0,0.01171875,120.08203125,0)" xlink:href="#aZ"/><use transform="matrix(0.01171875,0,0,0.01171875,133.9453125,0)" xlink:href="#bb"/></g><path fill="#424242" d="M338-1490V0H158v-1490h180" id="bu"/><path fill="#424242" d="M338-670V0H158v-1118h173l1 207c72-158 192-221 342-221 226 0 378 139 378 422V0H872v-695c0-172-96-275-252-275-161 0-282 109-282 300" id="bv"/><g id="l"><use transform="matrix(0.01171875,0,0,0.01171875,0,0)" xlink:href="#bf"/><use transform="matrix(0.01171875,0,0,0.01171875,14.6953125,0)" xlink:href="#bg"/><use transform="matrix(0.01171875,0,0,0.01171875,20.5078125,0)" xlink:href="#bh"/><use transform="matrix(0.01171875,0,0,0.01171875,41.53125,0)" xlink:href="#bi"/><use transform="matrix(0.01171875,0,0,0.01171875,53.28515625,0)" xlink:href="#bu"/><use transform="matrix(0.01171875,0,0,0.01171875,59.09765625,0)" xlink:href="#bq"/><use transform="matrix(0.01171875,0,0,0.01171875,73.48828125,0)" xlink:href="#bs"/><use transform="matrix(0.01171875,0,0,0.01171875,87.43359375,0)" xlink:href="#bj"/><use transform="matrix(0.01171875,0,0,0.01171875,100.91015625,0)" xlink:href="#bk"/><use transform="matrix(0.01171875,0,0,0.01171875,108.76171875,0)" xlink:href="#bg"/><use transform="matrix(0.01171875,0,0,0.01171875,114.57421875,0)" xlink:href="#bq"/><use transform="matrix(0.01171875,0,0,0.01171875,128.96484375,0)" xlink:href="#bv"/><use transform="matrix(0.01171875,0,0,0.01171875,143.14453125,0)" xlink:href="#aY"/></g><g id="m"><use transform="matrix(0.01171875,0,0,0.01171875,0,0)" xlink:href="#bn"/><use transform="matrix(0.01171875,0,0,0.01171875,14.94140625,0)" xlink:href="#aL"/><use transform="matrix(0.01171875,0,0,0.01171875,28.3828125,0)" xlink:href="#aZ"/><use transform="matrix(0.01171875,0,0,0.01171875,42.6796875,0)" xlink:href="#aI"/><use transform="matrix(0.01171875,0,0,0.01171875,52.453125,0)" xlink:href="#aP"/><use transform="matrix(0.01171875,0,0,0.01171875,64.6875,0)" xlink:href="#ba"/><use transform="matrix(0.01171875,0,0,0.01171875,78.0703125,0)" xlink:href="#aZ"/><use transform="matrix(0.01171875,0,0,0.01171875,91.93359375,0)" xlink:href="#bb"/></g><path fill="#424242" d="M538 24C308 24 148-78 108-271l171-41c32 123 123 178 257 178 156 0 256-77 256-169 0-77-54-128-164-154l-186-44c-203-48-300-148-300-305 0-192 176-326 414-326 230 0 351 112 402 269l-163 42c-31-80-94-158-238-158-133 0-233 69-233 162 0 83 57 129 188 160l169 40c203 48 298 149 298 302 0 196-179 339-441 339" id="bw"/><g id="n"><use transform="matrix(0.01171875,0,0,0.01171875,0,0)" xlink:href="#bf"/><use transform="matrix(0.01171875,0,0,0.01171875,14.6953125,0)" xlink:href="#bg"/><use transform="matrix(0.01171875,0,0,0.01171875,20.5078125,0)" xlink:href="#bh"/><use transform="matrix(0.01171875,0,0,0.01171875,41.53125,0)" xlink:href="#bi"/><use transform="matrix(0.01171875,0,0,0.01171875,52.4765625,0)" xlink:href="#br"/><use transform="matrix(0.01171875,0,0,0.01171875,66.66796875,0)" xlink:href="#bw"/><use transform="matrix(0.01171875,0,0,0.01171875,79.3359375,0)" xlink:href="#bl"/><use transform="matrix(0.01171875,0,0,0.01171875,93.328125,0)" xlink:href="#bp"/></g><path fill="#424242" d="M1163 418H863v-597h-10C812-89 719 19 537 19 279 19 81-185 81-557c0-382 206-575 454-575 190 0 278 113 318 202h15v-188h295V418zM629-222c153 0 240-134 240-336 0-203-86-334-240-334-158 0-240 138-240 334 0 197 84 336 240 336" id="bx"/><g id="o"><use transform="matrix(0.01171875,0,0,0.01171875,0,0)" xlink:href="#bx"/><use transform="matrix(0.01171875,0,0,0.01171875,15.12890625,0)" xlink:href="#bn"/><use transform="matrix(0.01171875,0,0,0.01171875,30.0703125,0)" xlink:href="#aJ"/><use transform="matrix(0.01171875,0,0,0.01171875,44.00390625,0)" xlink:href="#aK"/><use transform="matrix(0.01171875,0,0,0.01171875,58.9453125,0)" xlink:href="#aH"/><use transform="matrix(0.01171875,0,0,0.01171875,67.734375,0)" xlink:href="#aN"/><use transform="matrix(0.01171875,0,0,0.01171875,74.23828125,0)" xlink:href="#aH"/><use transform="matrix(0.01171875,0,0,0.01171875,83.5546875,0)" xlink:href="#bb"/><use transform="matrix(0.01171875,0,0,0.01171875,96.10546875,0)" xlink:href="#aP"/><use transform="matrix(0.01171875,0,0,0.01171875,107.53125,0)" xlink:href="#aQ"/><use transform="matrix(0.01171875,0,0,0.01171875,122.66015625,0)" xlink:href="#aZ"/><use transform="matrix(0.01171875,0,0,0.01171875,136.95703125,0)" xlink:href="#bt"/><use transform="matrix(0.01171875,0,0,0.01171875,143.8125,0)" xlink:href="#aH"/><use transform="matrix(0.01171875,0,0,0.01171875,152.71875,0)" xlink:href="#aJ"/></g><path fill="#424242" d="M645 0H180v-1490h484c435 0 692 280 692 742 0 466-257 748-711 748zM370-168h263c363 0 539-218 539-580 0-358-176-574-521-574H370v1154" id="by"/><path fill="#424242" d="M180 0v-1490h908v168H370v486h669v168H370v500h727V0H180" id="bz"/><path fill="#424242" d="M783 20c-382 0-661-292-661-764 0-473 279-766 661-766 302 0 548 182 601 489h-190c-42-204-217-313-411-313-268 0-476 208-476 590 0 381 209 588 476 588 195 0 369-110 411-313h190c-52 303-296 489-601 489" id="bA"/><path fill="#424242" d="M180 0v-1490h270l367 940c28 72 75 218 110 339 35-117 81-264 110-339l362-940h271V0h-187c2-448-5-837 7-1287-157 497-311 829-483 1287H842C666-458 514-784 354-1284c12 438 5 843 7 1284H180" id="bB"/><path fill="#424242" d="M52 0l541-1490h220L1361 0h-200l-149-416H398L254 0H52zm404-582h497c-103-290-145-390-251-756-108 377-145 460-246 756" id="bC"/><path fill="#424242" d="M180 0v-1490h190v1322h690V0H180" id="bD"/><path fill="#424242" d="M218-607c0-325 108-727 258-974h175c-155 315-250 682-250 974 0 265 78 531 250 886H476C306-10 218-315 218-607" id="bE"/><path fill="#424242" d="M653-1490V0H466v-1314h-10L96-1047v-204l324-239h233" id="bF"/><path fill="#424242" d="M154 0v-137l495-537c165-179 249-281 249-418 0-156-121-253-280-253-170 0-278 110-278 278H158c0-264 200-443 465-443 266 0 455 183 455 416 0 161-73 288-336 568L416-179v12h687V0H154" id="bG"/><path fill="#424242" d="M128 359l88-567h206L266 359H128" id="bH"/><path fill="#424242" d="M96 279C273-86 346-350 346-607c0-292-95-659-250-974h175c150 246 258 650 258 974 0 297-91 602-258 886H96" id="bI"/><g id="p"><use transform="matrix(0.01171875,0,0,0.01171875,0,0)" xlink:href="#by"/><use transform="matrix(0.01171875,0,0,0.01171875,17.3203125,0)" xlink:href="#bz"/><use transform="matrix(0.01171875,0,0,0.01171875,31.74609375,0)" xlink:href="#bA"/><use transform="matrix(0.01171875,0,0,0.01171875,49.27734375,0)" xlink:href="#aS"/><use transform="matrix(0.01171875,0,0,0.01171875,55.72265625,0)" xlink:href="#bB"/><use transform="matrix(0.01171875,0,0,0.01171875,77.40234375,0)" xlink:href="#bC"/><use transform="matrix(0.01171875,0,0,0.01171875,93.9609375,0)" xlink:href="#bD"/><use transform="matrix(0.01171875,0,0,0.01171875,107.53125,0)" xlink:href="#bE"/><use transform="matrix(0.01171875,0,0,0.01171875,116.28515625,0)" xlink:href="#bF"/><use transform="matrix(0.01171875,0,0,0.01171875,126.046875,0)" xlink:href="#bG"/><use transform="matrix(0.01171875,0,0,0.01171875,140.68359375,0)" xlink:href="#bH"/><use transform="matrix(0.01171875,0,0,0.01171875,147.59765625,0)" xlink:href="#bG"/><use transform="matrix(0.01171875,0,0,0.01171875,162.234375,0)" xlink:href="#bI"/></g><path fill="#424242" d="M754 19C571 19 479-89 437-179h-14V0H128v-1490h300v560h9c41-89 129-202 319-202 248 0 453 193 453 575 0 372-197 576-455 576zm-92-241c156 0 240-139 240-336 0-196-83-334-240-334-154 0-241 131-241 334 0 202 88 336 241 336" id="bJ"/><g id="q"><use transform="matrix(0.01171875,0,0,0.01171875,0,0)" xlink:href="#aJ"/><use transform="matrix(0.01171875,0,0,0.01171875,13.93359375,0)" xlink:href="#bJ"/><use transform="matrix(0.01171875,0,0,0.01171875,29.0625,0)" xlink:href="#aL"/><use transform="matrix(0.01171875,0,0,0.01171875,42.50390625,0)" xlink:href="#aO"/><use transform="matrix(0.01171875,0,0,0.01171875,57.22265625,0)" xlink:href="#bt"/><use transform="matrix(0.01171875,0,0,0.01171875,63.7265625,0)" xlink:href="#bn"/><use transform="matrix(0.01171875,0,0,0.01171875,78.66796875,0)" xlink:href="#aH"/><use transform="matrix(0.01171875,0,0,0.01171875,87.22265625,0)" xlink:href="#aZ"/><use transform="matrix(0.01171875,0,0,0.01171875,101.51953125,0)" xlink:href="#aP"/><use transform="matrix(0.01171875,0,0,0.01171875,112.9453125,0)" xlink:href="#bx"/><use transform="matrix(0.01171875,0,0,0.01171875,128.07421875,0)" xlink:href="#bn"/><use transform="matrix(0.01171875,0,0,0.01171875,143.015625,0)" xlink:href="#aJ"/><use transform="matrix(0.01171875,0,0,0.01171875,156.94921875,0)" xlink:href="#aK"/><use transform="matrix(0.01171875,0,0,0.01171875,171.890625,0)" xlink:href="#aH"/><use transform="matrix(0.01171875,0,0,0.01171875,180.6796875,0)" xlink:href="#aN"/><use transform="matrix(0.01171875,0,0,0.01171875,187.18359375,0)" xlink:href="#aH"/><use transform="matrix(0.01171875,0,0,0.01171875,196.5,0)" xlink:href="#bb"/></g><path fill="#424242" d="M428-647V0H128v-1490h294v586c65-146 175-228 341-228 232 0 385 159 385 421V0H847v-659c0-139-76-222-202-222-128 0-217 86-217 234" id="bK"/><g id="r"><use transform="matrix(0.01171875,0,0,0.01171875,0,0)" xlink:href="#aM"/><use transform="matrix(0.01171875,0,0,0.01171875,14.12109375,0)" xlink:href="#bn"/><use transform="matrix(0.01171875,0,0,0.01171875,29.0625,0)" xlink:href="#aI"/><use transform="matrix(0.01171875,0,0,0.01171875,39.01171875,0)" xlink:href="#aI"/><use transform="matrix(0.01171875,0,0,0.01171875,48.19921875,0)" xlink:href="#aZ"/><use transform="matrix(0.01171875,0,0,0.01171875,62.49609375,0)" xlink:href="#aK"/><use transform="matrix(0.01171875,0,0,0.01171875,77.4375,0)" xlink:href="#aH"/><use transform="matrix(0.01171875,0,0,0.01171875,86.2265625,0)" xlink:href="#aP"/><use transform="matrix(0.01171875,0,0,0.01171875,97.65234375,0)" xlink:href="#aL"/><use transform="matrix(0.01171875,0,0,0.01171875,111.09375,0)" xlink:href="#aH"/><use transform="matrix(0.01171875,0,0,0.01171875,119.6484375,0)" xlink:href="#aO"/><use transform="matrix(0.01171875,0,0,0.01171875,134.3671875,0)" xlink:href="#aM"/><use transform="matrix(0.01171875,0,0,0.01171875,148.48828125,0)" xlink:href="#ba"/><use transform="matrix(0.01171875,0,0,0.01171875,162.41015625,0)" xlink:href="#aP"/><use transform="matrix(0.01171875,0,0,0.01171875,173.8359375,0)" xlink:href="#aL"/><use transform="matrix(0.01171875,0,0,0.01171875,187.27734375,0)" xlink:href="#aK"/><use transform="matrix(0.01171875,0,0,0.01171875,202.21875,0)" xlink:href="#aJ"/><use transform="matrix(0.01171875,0,0,0.01171875,216.15234375,0)" xlink:href="#bm"/><use transform="matrix(0.01171875,0,0,0.01171875,231.28125,0)" xlink:href="#aL"/><use transform="matrix(0.01171875,0,0,0.01171875,244.72265625,0)" xlink:href="#bK"/><use transform="matrix(0.01171875,0,0,0.01171875,259.6640625,0)" xlink:href="#aO"/><use transform="matrix(0.01171875,0,0,0.01171875,274.3828125,0)" xlink:href="#aH"/></g><path fill="#424242" d="M443 0L31-1118h319c90 293 199 572 268 885 66-313 175-593 264-885h315L784 0H443" id="bL"/><g id="s"><use transform="matrix(0.01171875,0,0,0.01171875,0,0)" xlink:href="#aZ"/><use transform="matrix(0.01171875,0,0,0.01171875,13.86328125,0)" xlink:href="#bL"/><use transform="matrix(0.01171875,0,0,0.01171875,27.8203125,0)" xlink:href="#aZ"/><use transform="matrix(0.01171875,0,0,0.01171875,42.1171875,0)" xlink:href="#aK"/><use transform="matrix(0.01171875,0,0,0.01171875,57.05859375,0)" xlink:href="#aH"/><use transform="matrix(0.01171875,0,0,0.01171875,65.84765625,0)" xlink:href="#aP"/><use transform="matrix(0.01171875,0,0,0.01171875,77.2734375,0)" xlink:href="#aH"/><use transform="matrix(0.01171875,0,0,0.01171875,86.58984375,0)" xlink:href="#bb"/><use transform="matrix(0.01171875,0,0,0.01171875,101.0390625,0)" xlink:href="#bm"/><use transform="matrix(0.01171875,0,0,0.01171875,116.16796875,0)" xlink:href="#aZ"/></g><path fill="#424242" d="M600 0L52-1490h200c166 485 304 806 458 1336 156-533 285-846 449-1336h202L819 0H600" id="bM"/><path fill="#424242" d="M180 0v-1490h510c348 0 508 194 508 460 0 198-88 351-276 417L1256 0h-220L726-579c-117 2-238 0-356 1V0H180zm190-747h312c235 0 327-108 327-283 0-177-92-293-329-293H370v576" id="bN"/><path fill="#424242" d="M180 0v-1490h190v644h782v-644h190V0h-190v-678H370V0H180" id="bO"/><path fill="#424242" d="M635 20c-292 0-500-160-510-396h192c11 142 145 229 315 229 187 0 323-105 323-260 0-161-125-274-346-274H488v-165h121c174 0 294-100 294-254 0-148-104-245-266-245-152 0-291 85-297 230H157c8-234 222-395 484-395 278 0 448 188 448 400 0 168-95 291-247 336v12c190 31 301 169 301 357 0 244-216 425-508 425" id="bP"/><g id="t"><use transform="matrix(0.01171875,0,0,0.01171875,0,0)" xlink:href="#bM"/><use transform="matrix(0.01171875,0,0,0.01171875,14.91796875,0)" xlink:href="#bC"/><use transform="matrix(0.01171875,0,0,0.01171875,31.4765625,0)" xlink:href="#bN"/><use transform="matrix(0.01171875,0,0,0.01171875,46.921875,0)" xlink:href="#bA"/><use transform="matrix(0.01171875,0,0,0.01171875,64.453125,0)" xlink:href="#bO"/><use transform="matrix(0.01171875,0,0,0.01171875,82.2890625,0)" xlink:href="#bC"/><use transform="matrix(0.01171875,0,0,0.01171875,98.84765625,0)" xlink:href="#bN"/><use transform="matrix(0.01171875,0,0,0.01171875,114.29296875,0)" xlink:href="#bE"/><use transform="matrix(0.01171875,0,0,0.01171875,123.046875,0)" xlink:href="#bP"/><use transform="matrix(0.01171875,0,0,0.01171875,137.87109375,0)" xlink:href="#bG"/><use transform="matrix(0.01171875,0,0,0.01171875,152.5078125,0)" xlink:href="#bI"/></g><path fill="#111827" d="M537 19C279 19 81-185 81-557c0-382 206-575 454-575 190 0 278 113 318 202h10v-560h300V0H868v-179h-15C812-89 719 19 537 19zm92-241c153 0 240-134 240-336 0-203-86-334-240-334-158 0-240 138-240 334 0 197 84 336 240 336" id="bQ"/><path fill="#111827" d="M128 0v-1118h278l12 217c60-163 185-234 319-234 143 0 236 81 288 251 63-172 205-251 359-251 205 0 357 138 357 381V0h-301v-697c0-126-76-187-177-187-114 0-184 79-184 196V0H789v-705c0-109-72-179-174-179-106 0-187 74-187 208V0H128" id="bR"/><path fill="#111827" d="M128 418v-1536h295v188h14c41-89 129-202 319-202 248 0 453 193 453 575 0 372-197 576-455 576-183 0-275-108-317-198h-9v597H128zm534-640c156 0 240-139 240-336 0-196-83-334-240-334-154 0-241 131-241 334 0 202 88 336 241 336" id="bS"/><path fill="#111827" d="M513 14c-232 0-385-159-385-421v-711h300v659c0 139 76 222 202 222 127 0 217-86 217-234v-647h301V0H864l-4-232C797-74 683 14 513 14" id="bT"/><g id="u"><use transform="matrix(0.012890625000000001,0,0,0.012890625000000001,0,0)" xlink:href="#bQ"/><use transform="matrix(0.012890625000000001,0,0,0.012890625000000001,16.641796875,0)" xlink:href="#aG"/><use transform="matrix(0.012890625000000001,0,0,0.012890625000000001,23.79609375,0)" xlink:href="#bR"/><use transform="matrix(0.012890625000000001,0,0,0.012890625000000001,47.888671875,0)" xlink:href="#aw"/><use transform="matrix(0.012890625000000001,0,0,0.012890625000000001,61.346484375,0)" xlink:href="#bS"/><use transform="matrix(0.012890625000000001,0,0,0.012890625000000001,77.98828125,0)" xlink:href="#aC"/><use transform="matrix(0.012890625000000001,0,0,0.012890625000000001,88.09453125,0)" xlink:href="#aB"/><use transform="matrix(0.012890625000000001,0,0,0.012890625000000001,104.28515625,0)" xlink:href="#bQ"/><use transform="matrix(0.012890625000000001,0,0,0.012890625000000001,120.92695312499998,0)" xlink:href="#bT"/><use transform="matrix(0.012890625000000001,0,0,0.012890625000000001,137.3625,0)" xlink:href="#au"/><use transform="matrix(0.012890625000000001,0,0,0.012890625000000001,152.895703125,0)" xlink:href="#av"/></g><g id="v"><use transform="matrix(0.01171875,0,0,0.01171875,0,0)" xlink:href="#aV"/><use transform="matrix(0.01171875,0,0,0.01171875,10.23046875,0)" xlink:href="#aW"/><use transform="matrix(0.01171875,0,0,0.01171875,25.55859375,0)" xlink:href="#aX"/><use transform="matrix(0.01171875,0,0,0.01171875,41.68359375,0)" xlink:href="#aY"/></g><g id="w"><use transform="matrix(0.01171875,0,0,0.01171875,0,0)" xlink:href="#bm"/><use transform="matrix(0.01171875,0,0,0.01171875,15.12890625,0)" xlink:href="#aI"/><use transform="matrix(0.01171875,0,0,0.01171875,24.31640625,0)" xlink:href="#aO"/><use transform="matrix(0.01171875,0,0,0.01171875,39.03515625,0)" xlink:href="#aQ"/><use transform="matrix(0.01171875,0,0,0.01171875,54.1640625,0)" xlink:href="#bn"/><use transform="matrix(0.01171875,0,0,0.01171875,69.10546875,0)" xlink:href="#aM"/><use transform="matrix(0.01171875,0,0,0.01171875,83.2265625,0)" xlink:href="#aH"/><use transform="matrix(0.01171875,0,0,0.01171875,92.015625,0)" xlink:href="#aP"/><use transform="matrix(0.01171875,0,0,0.01171875,103.81640625,0)" xlink:href="#aN"/><use transform="matrix(0.01171875,0,0,0.01171875,110.3203125,0)" xlink:href="#aQ"/></g><path fill="#424242" d="M295 13c-75 0-135-60-135-135s60-135 135-135 135 60 135 135S370 13 295 13" id="bU"/><g id="x"><use transform="matrix(0.01171875,0,0,0.01171875,0,0)" xlink:href="#aV"/><use transform="matrix(0.01171875,0,0,0.01171875,10.23046875,0)" xlink:href="#aW"/><use transform="matrix(0.01171875,0,0,0.01171875,25.55859375,0)" xlink:href="#bp"/><use transform="matrix(0.01171875,0,0,0.01171875,34.1953125,0)" xlink:href="#bq"/><use transform="matrix(0.01171875,0,0,0.01171875,48.5859375,0)" xlink:href="#bf"/><use transform="matrix(0.01171875,0,0,0.01171875,63.28125,0)" xlink:href="#br"/><use transform="matrix(0.01171875,0,0,0.01171875,77.47265625,0)" xlink:href="#bs"/><use transform="matrix(0.01171875,0,0,0.01171875,91.18359375,0)" xlink:href="#bk"/><use transform="matrix(0.01171875,0,0,0.01171875,99.03515625,0)" xlink:href="#bU"/><use transform="matrix(0.01171875,0,0,0.01171875,105.94921875,0)" xlink:href="#aW"/><use transform="matrix(0.01171875,0,0,0.01171875,121.27734375,0)" xlink:href="#bp"/><use transform="matrix(0.01171875,0,0,0.01171875,129.9140625,0)" xlink:href="#bq"/><use transform="matrix(0.01171875,0,0,0.01171875,144.3046875,0)" xlink:href="#bf"/><use transform="matrix(0.01171875,0,0,0.01171875,159,0)" xlink:href="#br"/><use transform="matrix(0.01171875,0,0,0.01171875,173.19140625,0)" xlink:href="#bs"/><use transform="matrix(0.01171875,0,0,0.01171875,186.90234375,0)" xlink:href="#bk"/><use transform="matrix(0.01171875,0,0,0.01171875,194.75390625,0)" xlink:href="#aS"/><use transform="matrix(0.01171875,0,0,0.01171875,201.19921875,0)" xlink:href="#by"/><use transform="matrix(0.01171875,0,0,0.01171875,218.51953125,0)" xlink:href="#aY"/></g><path fill="#424242" d="M128 0v-1118h278l12 217c60-163 185-234 319-234 143 0 236 81 288 251 63-172 205-251 359-251 205 0 357 138 357 381V0h-301v-697c0-126-76-187-177-187-114 0-184 79-184 196V0H789v-705c0-109-72-179-174-179-106 0-187 74-187 208V0H128" id="bV"/><g id="y"><use transform="matrix(0.01171875,0,0,0.01171875,0,0)" xlink:href="#bm"/><use transform="matrix(0.01171875,0,0,0.01171875,15.12890625,0)" xlink:href="#aI"/><use transform="matrix(0.01171875,0,0,0.01171875,24.31640625,0)" xlink:href="#aO"/><use transform="matrix(0.01171875,0,0,0.01171875,39.03515625,0)" xlink:href="#aQ"/><use transform="matrix(0.01171875,0,0,0.01171875,54.1640625,0)" xlink:href="#bn"/><use transform="matrix(0.01171875,0,0,0.01171875,69.10546875,0)" xlink:href="#aM"/><use transform="matrix(0.01171875,0,0,0.01171875,83.2265625,0)" xlink:href="#aH"/><use transform="matrix(0.01171875,0,0,0.01171875,92.015625,0)" xlink:href="#aP"/><use transform="matrix(0.01171875,0,0,0.01171875,104.25,0)" xlink:href="#aK"/><use transform="matrix(0.01171875,0,0,0.01171875,119.19140625,0)" xlink:href="#aJ"/><use transform="matrix(0.01171875,0,0,0.01171875,133.125,0)" xlink:href="#bV"/><use transform="matrix(0.01171875,0,0,0.01171875,155.02734375,0)" xlink:href="#aZ"/></g><path fill="#424242" d="M633 20c-303 0-511-173-511-416 0-188 124-348 291-378v-8c-145-37-237-174-237-332 0-227 192-396 457-396 261 0 456 169 456 396 0 158-94 295-235 332v8c162 30 291 190 291 378 0 243-212 416-512 416zm0-165c197 0 322-103 322-261 0-165-138-283-322-283-188 0-324 118-324 283 0 158 123 261 324 261zm0-703c157 0 272-101 272-252 0-149-110-246-272-246-165 0-273 97-273 246 0 151 112 252 273 252" id="bW"/><g id="z"><use transform="matrix(0.01171875,0,0,0.01171875,0,0)" xlink:href="#bM"/><use transform="matrix(0.01171875,0,0,0.01171875,14.91796875,0)" xlink:href="#bC"/><use transform="matrix(0.01171875,0,0,0.01171875,31.4765625,0)" xlink:href="#bN"/><use transform="matrix(0.01171875,0,0,0.01171875,46.921875,0)" xlink:href="#bA"/><use transform="matrix(0.01171875,0,0,0.01171875,64.453125,0)" xlink:href="#bO"/><use transform="matrix(0.01171875,0,0,0.01171875,82.2890625,0)" xlink:href="#bC"/><use transform="matrix(0.01171875,0,0,0.01171875,98.84765625,0)" xlink:href="#bN"/><use transform="matrix(0.01171875,0,0,0.01171875,114.29296875,0)" xlink:href="#bE"/><use transform="matrix(0.01171875,0,0,0.01171875,123.046875,0)" xlink:href="#bF"/><use transform="matrix(0.01171875,0,0,0.01171875,132.80859375,0)" xlink:href="#bG"/><use transform="matrix(0.01171875,0,0,0.01171875,147.4453125,0)" xlink:href="#bW"/><use transform="matrix(0.01171875,0,0,0.01171875,162.29296875,0)" xlink:href="#bI"/></g><path fill="#424242" d="M625 442c-280 0-454-114-503-274l258-72c28 63 97 128 243 128 153 0 246-69 246-216v-206h-23C805-108 717-16 536-16 284-16 81-191 81-561c0-378 208-571 456-571 188 0 280 113 321 202h13v-188h295V-9c0 303-226 451-541 451zm5-686c153 0 240-119 240-319 0-198-86-329-240-329-158 0-241 137-241 329 0 195 85 319 241 319" id="bX"/><g id="A"><use transform="matrix(0.01171875,0,0,0.01171875,0,0)" xlink:href="#aM"/><use transform="matrix(0.01171875,0,0,0.01171875,14.35546875,0)" xlink:href="#aJ"/><use transform="matrix(0.01171875,0,0,0.01171875,28.2890625,0)" xlink:href="#aH"/><use transform="matrix(0.01171875,0,0,0.01171875,36.84375,0)" xlink:href="#aZ"/><use transform="matrix(0.01171875,0,0,0.01171875,51.140625,0)" xlink:href="#bX"/><use transform="matrix(0.01171875,0,0,0.01171875,66.3046875,0)" xlink:href="#aO"/><use transform="matrix(0.01171875,0,0,0.01171875,81.0234375,0)" xlink:href="#aI"/><use transform="matrix(0.01171875,0,0,0.01171875,91.171875,0)" xlink:href="#bb"/></g><path fill="#424242" d="M646 20c-249 0-524-159-524-708 0-524 209-822 547-822 250 0 431 161 467 395H950c-33-129-126-227-281-227-229 0-367 208-367 566h12c80-124 212-198 367-198 255 0 467 205 467 493 0 278-198 501-502 501zm0-167c179 0 318-148 318-334 0-182-133-328-313-328-181 0-322 156-322 330 0 176 134 332 317 332" id="bY"/><path fill="#424242" d="M120-303v-155l652-1032h231v1020h202v167h-202V0H821v-303H120zm702-167v-782h-12L323-482v12h499" id="bZ"/><g id="B"><use transform="matrix(0.01171875,0,0,0.01171875,0,0)" xlink:href="#bM"/><use transform="matrix(0.01171875,0,0,0.01171875,14.91796875,0)" xlink:href="#bC"/><use transform="matrix(0.01171875,0,0,0.01171875,31.4765625,0)" xlink:href="#bN"/><use transform="matrix(0.01171875,0,0,0.01171875,46.921875,0)" xlink:href="#bA"/><use transform="matrix(0.01171875,0,0,0.01171875,64.453125,0)" xlink:href="#bO"/><use transform="matrix(0.01171875,0,0,0.01171875,82.2890625,0)" xlink:href="#bC"/><use transform="matrix(0.01171875,0,0,0.01171875,98.84765625,0)" xlink:href="#bN"/><use transform="matrix(0.01171875,0,0,0.01171875,114.29296875,0)" xlink:href="#bE"/><use transform="matrix(0.01171875,0,0,0.01171875,123.046875,0)" xlink:href="#bY"/><use transform="matrix(0.01171875,0,0,0.01171875,137.9296875,0)" xlink:href="#bZ"/><use transform="matrix(0.01171875,0,0,0.01171875,153.43359375,0)" xlink:href="#bI"/></g><path fill="#424242" d="M750-1118v229H516V0H217v-889H20v-229h197v-86c0-238 156-356 363-356 94 0 178 20 215 31l-54 226c-25-7-61-15-100-15-123-3-131 84-125 200h234" id="ca"/><g id="C"><use transform="matrix(0.01171875,0,0,0.01171875,0,0)" xlink:href="#bn"/><use transform="matrix(0.01171875,0,0,0.01171875,14.94140625,0)" xlink:href="#aK"/><use transform="matrix(0.01171875,0,0,0.01171875,29.8828125,0)" xlink:href="#aN"/><use transform="matrix(0.01171875,0,0,0.01171875,36.38671875,0)" xlink:href="#aH"/><use transform="matrix(0.01171875,0,0,0.01171875,45.17578125,0)" xlink:href="#aP"/><use transform="matrix(0.01171875,0,0,0.01171875,56.6015625,0)" xlink:href="#aO"/><use transform="matrix(0.01171875,0,0,0.01171875,71.3203125,0)" xlink:href="#ca"/><use transform="matrix(0.01171875,0,0,0.01171875,80.53125,0)" xlink:href="#aP"/><use transform="matrix(0.01171875,0,0,0.01171875,92.765625,0)" xlink:href="#bV"/><use transform="matrix(0.01171875,0,0,0.01171875,114.66796875,0)" xlink:href="#aZ"/><use transform="matrix(0.01171875,0,0,0.01171875,129.19921875,0)" xlink:href="#aJ"/><use transform="matrix(0.01171875,0,0,0.01171875,143.1328125,0)" xlink:href="#aL"/><use transform="matrix(0.01171875,0,0,0.01171875,156.57421875,0)" xlink:href="#bn"/><use transform="matrix(0.01171875,0,0,0.01171875,171.515625,0)" xlink:href="#aI"/><use transform="matrix(0.01171875,0,0,0.01171875,180.703125,0)" xlink:href="#aZ"/></g><g id="D"><use transform="matrix(0.01171875,0,0,0.01171875,0,0)" xlink:href="#bM"/><use transform="matrix(0.01171875,0,0,0.01171875,14.91796875,0)" xlink:href="#bC"/><use transform="matrix(0.01171875,0,0,0.01171875,31.4765625,0)" xlink:href="#bN"/><use transform="matrix(0.01171875,0,0,0.01171875,46.921875,0)" xlink:href="#bA"/><use transform="matrix(0.01171875,0,0,0.01171875,64.453125,0)" xlink:href="#bO"/><use transform="matrix(0.01171875,0,0,0.01171875,82.2890625,0)" xlink:href="#bC"/><use transform="matrix(0.01171875,0,0,0.01171875,98.84765625,0)" xlink:href="#bN"/><use transform="matrix(0.01171875,0,0,0.01171875,114.29296875,0)" xlink:href="#bE"/><use transform="matrix(0.01171875,0,0,0.01171875,123.046875,0)" xlink:href="#bF"/><use transform="matrix(0.01171875,0,0,0.01171875,132.80859375,0)" xlink:href="#bG"/><use transform="matrix(0.01171875,0,0,0.01171875,147.4453125,0)" xlink:href="#bW"/><use transform="matrix(0.01171875,0,0,0.01171875,162.29296875,0)" xlink:href="#bI"/></g><g id="E"><use transform="matrix(0.01171875,0,0,0.01171875,0,0)" xlink:href="#aQ"/><use transform="matrix(0.01171875,0,0,0.01171875,15.12890625,0)" xlink:href="#aZ"/><use transform="matrix(0.01171875,0,0,0.01171875,29.42578125,0)" xlink:href="#aL"/><use transform="matrix(0.01171875,0,0,0.01171875,42.8671875,0)" xlink:href="#aM"/><use transform="matrix(0.01171875,0,0,0.01171875,56.98828125,0)" xlink:href="#aI"/><use transform="matrix(0.01171875,0,0,0.01171875,66.9375,0)" xlink:href="#aN"/><use transform="matrix(0.01171875,0,0,0.01171875,73.44140625,0)" xlink:href="#bm"/><use transform="matrix(0.01171875,0,0,0.01171875,88.5703125,0)" xlink:href="#aH"/><use transform="matrix(0.01171875,0,0,0.01171875,97.359375,0)" xlink:href="#aN"/><use transform="matrix(0.01171875,0,0,0.01171875,103.86328125,0)" xlink:href="#aO"/><use transform="matrix(0.01171875,0,0,0.01171875,118.58203125,0)" xlink:href="#aK"/></g><path fill="#424242" d="M57 0l534-763-501-727h220c122 187 296 416 391 605 94-191 272-419 396-605h215L811-770 1340 0h-219C986-204 811-426 699-640 588-430 407-202 273 0H57" id="cb"/><g id="F"><use transform="matrix(0.01171875,0,0,0.01171875,0,0)" xlink:href="#aU"/><use transform="matrix(0.01171875,0,0,0.01171875,15.4921875,0)" xlink:href="#bz"/><use transform="matrix(0.01171875,0,0,0.01171875,29.91796875,0)" xlink:href="#cb"/><use transform="matrix(0.01171875,0,0,0.01171875,45.33984375,0)" xlink:href="#aU"/></g><path d="M653-1490V0H466v-1314h-10L96-1047v-204l324-239h233" id="cc"/><path d="M295 13c-75 0-135-60-135-135s60-135 135-135 135 60 135 135S370 13 295 13" id="cd"/><g id="G"><use transform="matrix(0.008173828125000001,0,0,0.008173828125000001,0,0)" xlink:href="#cc"/><use transform="matrix(0.008173828125000001,0,0,0.008173828125000001,6.808798828125001,0)" xlink:href="#cd"/><use transform="matrix(0.008173828125000001,0,0,0.008173828125000001,11.631357421875002,0)" xlink:href="#cd"/><use transform="matrix(0.008173828125000001,0,0,0.008173828125000001,15.007148437500003,0)" xlink:href="#cc"/></g><path d="M646 20c-332 0-524-278-524-764 0-483 194-766 524-766s524 283 524 766c0 485-191 764-524 764zm0-166c218 0 341-220 341-598 0-380-123-601-341-601s-341 222-341 601c0 378 123 598 341 598" id="ce"/><path d="M441-652l13-317-268 171-72-126 282-146-282-146 72-128 268 171-13-317h144l-12 317 267-171 72 128-282 146 282 146-72 126-267-171 12 317H441" id="cf"/><g id="H"><use transform="matrix(0.008173828125000001,0,0,0.008173828125000001,0,0)" xlink:href="#ce"/><use transform="matrix(0.008173828125000001,0,0,0.008173828125000001,10.135546875000001,0)" xlink:href="#cd"/><use transform="matrix(0.008173828125000001,0,0,0.008173828125000001,14.958105468750002,0)" xlink:href="#cd"/><use transform="matrix(0.008173828125000001,0,0,0.008173828125000001,19.7806640625,0)" xlink:href="#cf"/></g><path fill="#282c33" d="M440 22C227 22 68-92 68-313c0-250 202-322 422-343 195-21 271-24 271-105 0-95-63-149-175-149-116 0-187 57-211 129l-275-46c57-194 237-305 487-305 240 0 474 108 474 379V0H777v-155h-10C713-51 605 22 440 22zm85-211c140 0 238-93 238-211v-121c-37 26-156 42-222 51-111 16-185 59-185 149 0 87 70 132 169 132" id="cg"/><path fill="#282c33" d="M572 22C302 22 117-98 78-306l279-48c29 105 101 156 224 156 114 0 185-48 185-115 0-118-228-130-337-155-215-49-322-150-322-317 0-215 187-347 470-347 265 0 424 116 466 298l-266 47c-24-76-87-130-196-130-98 0-174 46-174 113 0 56 38 95 144 117l201 40c216 44 320 143 320 302 0 220-207 367-500 367" id="ch"/><path fill="#282c33" d="M628 22C291 22 81-210 81-554c0-346 210-578 547-578 336 0 547 232 547 578 0 344-211 576-547 576zm0-236c160 0 242-146 242-341 0-197-82-341-242-341S387-753 387-555c0 195 81 341 241 341" id="ci"/><path fill="#282c33" d="M628 22C291 22 81-210 81-554c0-346 210-578 547-578 265 0 455 142 497 372l-279 52c-25-116-99-188-215-188-160 0-244 139-244 341 0 200 84 341 244 341 116 0 193-74 217-195l279 51C1085-123 896 22 628 22" id="cj"/><path fill="#282c33" d="M128 0v-1118h300V0H128zm150-1264c-91 0-165-68-165-154 0-85 74-154 165-154 90 0 165 69 165 154 0 86-75 154-165 154" id="ck"/><path fill="#282c33" d="M683-1118v229H474v562c0 71 29 104 102 104 23 0 73-7 95-13l43 225C647 9 580 16 520 16 296 16 174-96 174-301v-588H20v-229h154v-266h300v266h209" id="cl"/><path fill="#282c33" d="M633 22C291 22 81-200 81-553c0-345 210-579 537-579 292 0 525 185 525 567v84H378c7 183 109 277 260 277 105 0 184-46 216-132l272 51C1071-99 893 22 633 22zM380-669h474c-15-146-94-237-233-237-143 0-229 99-241 237" id="cm"/><path fill="#282c33" d="M537 19C279 19 81-185 81-557c0-382 206-575 454-575 190 0 278 113 318 202h10v-560h300V0H868v-179h-15C812-89 719 19 537 19zm92-241c153 0 240-134 240-336 0-203-86-334-240-334-158 0-240 138-240 334 0 197 84 336 240 336" id="cn"/><g id="I"><use transform="matrix(0.010959201388888886,0,0,0.010959201388888886,0,0)" xlink:href="#cg"/><use transform="matrix(0.010959201388888886,0,0,0.010959201388888886,13.030490451388886,0)" xlink:href="#ch"/><use transform="matrix(0.010959201388888886,0,0,0.010959201388888886,25.600694444444432,0)" xlink:href="#ch"/><use transform="matrix(0.010959201388888886,0,0,0.010959201388888886,38.170898437499986,0)" xlink:href="#ci"/><use transform="matrix(0.010959201388888886,0,0,0.010959201388888886,51.935655381944436,0)" xlink:href="#cj"/><use transform="matrix(0.010959201388888886,0,0,0.010959201388888886,65.14149305555554,0)" xlink:href="#ck"/><use transform="matrix(0.010959201388888886,0,0,0.010959201388888886,71.22384982638887,0)" xlink:href="#cg"/><use transform="matrix(0.010959201388888886,0,0,0.010959201388888886,84.25434027777776,0)" xlink:href="#cl"/><use transform="matrix(0.010959201388888886,0,0,0.010959201388888886,92.25455729166667,0)" xlink:href="#cm"/><use transform="matrix(0.010959201388888886,0,0,0.010959201388888886,105.6247829861111,0)" xlink:href="#cn"/></g><path fill="#282c33" d="M361 0L31-1118h315c68 295 127 523 188 845 63-317 128-551 199-845h276c71 296 131 525 196 846 57-321 119-552 186-846h319L1378 0h-305c-73-261-148-486-204-771C813-484 740-261 666 0H361" id="co"/><path fill="#282c33" d="M428-647V0H128v-1490h294v586c65-146 175-228 341-228 232 0 385 159 385 421V0H847v-659c0-139-76-222-202-222-128 0-217 86-217 234" id="cp"/><g id="J"><use transform="matrix(0.010959201388888886,0,0,0.010959201388888886,0,0)" xlink:href="#co"/><use transform="matrix(0.010959201388888886,0,0,0.010959201388888886,19.07996961805555,0)" xlink:href="#ck"/><use transform="matrix(0.010959201388888886,0,0,0.010959201388888886,25.162326388888882,0)" xlink:href="#cl"/><use transform="matrix(0.010959201388888886,0,0,0.010959201388888886,33.436523437499986,0)" xlink:href="#cp"/></g><use transform="matrix(0.010959201388888886,0,0,0.010959201388888886,0,0)" xlink:href="#cg" id="K"/><path fill="#282c33" d="M128 418v-1536h295v188h14c41-89 129-202 319-202 248 0 453 193 453 575 0 372-197 576-455 576-183 0-275-108-317-198h-9v597H128zm534-640c156 0 240-139 240-336 0-196-83-334-240-334-154 0-241 131-241 334 0 202 88 336 241 336" id="cq"/><path fill="#282c33" d="M128 0v-1118h290v195h12c54-169 184-238 367-200v268c-27-8-86-15-130-15-138 0-239 95-239 234V0H128" id="cr"/><path fill="#282c33" d="M513 14c-232 0-385-159-385-421v-711h300v659c0 139 76 222 202 222 127 0 217-86 217-234v-647h301V0H864l-4-232C797-74 683 14 513 14" id="cs"/><g id="L"><use transform="matrix(0.010959201388888886,0,0,0.010959201388888886,0,0)" xlink:href="#cq"/><use transform="matrix(0.010959201388888886,0,0,0.010959201388888886,14.148328993055552,0)" xlink:href="#cr"/><use transform="matrix(0.010959201388888886,0,0,0.010959201388888886,22.740342881944436,0)" xlink:href="#ci"/><use transform="matrix(0.010959201388888886,0,0,0.010959201388888886,36.50509982638888,0)" xlink:href="#cn"/><use transform="matrix(0.010959201388888886,0,0,0.010959201388888886,50.653428819444436,0)" xlink:href="#cs"/><use transform="matrix(0.010959201388888886,0,0,0.010959201388888886,64.62641059027776,0)" xlink:href="#cj"/><use transform="matrix(0.010959201388888886,0,0,0.010959201388888886,77.83224826388887,0)" xlink:href="#cl"/></g><g id="M"><use transform="matrix(0.012890625000000001,0,0,0.012890625000000001,0,0)" xlink:href="#bQ"/><use transform="matrix(0.012890625000000001,0,0,0.012890625000000001,16.641796875,0)" xlink:href="#aG"/><use transform="matrix(0.012890625000000001,0,0,0.012890625000000001,23.79609375,0)" xlink:href="#bR"/><use transform="matrix(0.012890625000000001,0,0,0.012890625000000001,47.888671875,0)" xlink:href="#aw"/><use transform="matrix(0.012890625000000001,0,0,0.012890625000000001,60.45703125000001,0)" xlink:href="#bQ"/><use transform="matrix(0.012890625000000001,0,0,0.012890625000000001,77.098828125,0)" xlink:href="#at"/><use transform="matrix(0.012890625000000001,0,0,0.012890625000000001,92.42578125,0)" xlink:href="#av"/><use transform="matrix(0.012890625000000001,0,0,0.012890625000000001,101.8359375,0)" xlink:href="#aA"/></g><g id="N"><use transform="matrix(0.01171875,0,0,0.01171875,0,0)" xlink:href="#ca"/><use transform="matrix(0.01171875,0,0,0.01171875,9.55078125,0)" xlink:href="#bn"/><use transform="matrix(0.01171875,0,0,0.01171875,24.4921875,0)" xlink:href="#bt"/><use transform="matrix(0.01171875,0,0,0.01171875,30.99609375,0)" xlink:href="#bt"/><use transform="matrix(0.01171875,0,0,0.01171875,37.93359375,0)" xlink:href="#aP"/><use transform="matrix(0.01171875,0,0,0.01171875,49.359375,0)" xlink:href="#aQ"/><use transform="matrix(0.01171875,0,0,0.01171875,64.48828125,0)" xlink:href="#aJ"/><use transform="matrix(0.01171875,0,0,0.01171875,78.421875,0)" xlink:href="#aH"/><use transform="matrix(0.01171875,0,0,0.01171875,86.9765625,0)" xlink:href="#aZ"/></g><g id="O"><use transform="matrix(0.01171875,0,0,0.01171875,0,0)" xlink:href="#by"/><use transform="matrix(0.01171875,0,0,0.01171875,16.5,0)" xlink:href="#bC"/><use transform="matrix(0.01171875,0,0,0.01171875,31.01953125,0)" xlink:href="#aU"/><use transform="matrix(0.01171875,0,0,0.01171875,46.51171875,0)" xlink:href="#bz"/></g><g id="P"><use transform="matrix(0.01171875,0,0,0.01171875,0,0)" xlink:href="#aQ"/><use transform="matrix(0.01171875,0,0,0.01171875,15.12890625,0)" xlink:href="#aJ"/><use transform="matrix(0.01171875,0,0,0.01171875,28.65234375,0)" xlink:href="#bb"/></g><g id="Q"><use transform="matrix(0.01171875,0,0,0.01171875,0,0)" xlink:href="#aS"/><use transform="matrix(0.01171875,0,0,0.01171875,6.4453125,0)" xlink:href="#aT"/><use transform="matrix(0.01171875,0,0,0.01171875,24.52734375,0)" xlink:href="#aU"/></g><g id="R"><use transform="matrix(0.01171875,0,0,0.01171875,0,0)" xlink:href="#bV"/><use transform="matrix(0.01171875,0,0,0.01171875,21.90234375,0)" xlink:href="#aO"/><use transform="matrix(0.01171875,0,0,0.01171875,36.62109375,0)" xlink:href="#aK"/><use transform="matrix(0.01171875,0,0,0.01171875,51.5625,0)" xlink:href="#aH"/><use transform="matrix(0.01171875,0,0,0.01171875,60.41015625,0)" xlink:href="#bK"/></g><g id="S"><use transform="matrix(0.01171875,0,0,0.01171875,0,0)" xlink:href="#bV"/><use transform="matrix(0.01171875,0,0,0.01171875,21.90234375,0)" xlink:href="#aO"/><use transform="matrix(0.01171875,0,0,0.01171875,36.62109375,0)" xlink:href="#aK"/><use transform="matrix(0.01171875,0,0,0.01171875,51.5625,0)" xlink:href="#aH"/><use transform="matrix(0.01171875,0,0,0.01171875,60.41015625,0)" xlink:href="#bK"/><use transform="matrix(0.01171875,0,0,0.01171875,75.3515625,0)" xlink:href="#aP"/><use transform="matrix(0.01171875,0,0,0.01171875,87.5859375,0)" xlink:href="#aK"/><use transform="matrix(0.01171875,0,0,0.01171875,102.52734375,0)" xlink:href="#aJ"/><use transform="matrix(0.01171875,0,0,0.01171875,116.4609375,0)" xlink:href="#bV"/><use transform="matrix(0.01171875,0,0,0.01171875,138.36328125,0)" xlink:href="#aZ"/></g><g id="T"><use transform="matrix(0.01171875,0,0,0.01171875,0,0)" xlink:href="#bM"/><use transform="matrix(0.01171875,0,0,0.01171875,14.91796875,0)" xlink:href="#bC"/><use transform="matrix(0.01171875,0,0,0.01171875,31.4765625,0)" xlink:href="#bN"/><use transform="matrix(0.01171875,0,0,0.01171875,46.921875,0)" xlink:href="#bA"/><use transform="matrix(0.01171875,0,0,0.01171875,64.453125,0)" xlink:href="#bO"/><use transform="matrix(0.01171875,0,0,0.01171875,82.2890625,0)" xlink:href="#bC"/><use transform="matrix(0.01171875,0,0,0.01171875,98.84765625,0)" xlink:href="#bN"/><use transform="matrix(0.01171875,0,0,0.01171875,114.29296875,0)" xlink:href="#bE"/><use transform="matrix(0.01171875,0,0,0.01171875,123.046875,0)" xlink:href="#bP"/><use transform="matrix(0.01171875,0,0,0.01171875,137.87109375,0)" xlink:href="#bG"/><use transform="matrix(0.01171875,0,0,0.01171875,152.5078125,0)" xlink:href="#bI"/></g><g id="U"><use transform="matrix(0.01171875,0,0,0.01171875,0,0)" xlink:href="#bx"/><use transform="matrix(0.01171875,0,0,0.01171875,15.12890625,0)" xlink:href="#bn"/><use transform="matrix(0.01171875,0,0,0.01171875,30.0703125,0)" xlink:href="#aJ"/><use transform="matrix(0.01171875,0,0,0.01171875,44.00390625,0)" xlink:href="#aI"/><use transform="matrix(0.01171875,0,0,0.01171875,54.24609375,0)" xlink:href="#aH"/><use transform="matrix(0.01171875,0,0,0.01171875,62.80078125,0)" xlink:href="#aZ"/><use transform="matrix(0.01171875,0,0,0.01171875,77.09765625,0)" xlink:href="#aI"/></g><g id="V"><use transform="matrix(0.01171875,0,0,0.01171875,0,0)" xlink:href="#aS"/><use transform="matrix(0.01171875,0,0,0.01171875,6.4453125,0)" xlink:href="#aT"/><use transform="matrix(0.01171875,0,0,0.01171875,24.52734375,0)" xlink:href="#aU"/></g><g id="W"><use transform="matrix(0.01171875,0,0,0.01171875,0,0)" xlink:href="#bb"/><use transform="matrix(0.01171875,0,0,0.01171875,14.015625,0)" xlink:href="#aZ"/><use transform="matrix(0.01171875,0,0,0.01171875,28.546875,0)" xlink:href="#aJ"/><use transform="matrix(0.01171875,0,0,0.01171875,42.48046875,0)" xlink:href="#aI"/></g><path fill="#424242" d="M361 0L31-1118h315c68 295 127 523 188 845 63-317 128-551 199-845h276c71 296 131 525 196 846 57-321 119-552 186-846h319L1378 0h-305c-73-261-148-486-204-771C813-484 740-261 666 0H361" id="ct"/><g id="X"><use transform="matrix(0.01171875,0,0,0.01171875,0,0)" xlink:href="#aQ"/><use transform="matrix(0.01171875,0,0,0.01171875,15.12890625,0)" xlink:href="#aJ"/><use transform="matrix(0.01171875,0,0,0.01171875,28.65234375,0)" xlink:href="#bb"/><use transform="matrix(0.01171875,0,0,0.01171875,41.203125,0)" xlink:href="#aP"/><use transform="matrix(0.01171875,0,0,0.01171875,52.62890625,0)" xlink:href="#aO"/><use transform="matrix(0.01171875,0,0,0.01171875,67.34765625,0)" xlink:href="#ca"/><use transform="matrix(0.01171875,0,0,0.01171875,76.55859375,0)" xlink:href="#aP"/><use transform="matrix(0.01171875,0,0,0.01171875,87.984375,0)" xlink:href="#ct"/><use transform="matrix(0.01171875,0,0,0.01171875,108.05859375,0)" xlink:href="#aZ"/><use transform="matrix(0.01171875,0,0,0.01171875,122.35546875,0)" xlink:href="#aZ"/><use transform="matrix(0.01171875,0,0,0.01171875,136.65234375,0)" xlink:href="#ba"/></g><g id="Y"><use transform="matrix(0.012890625000000001,0,0,0.012890625000000001,0,0)" xlink:href="#bQ"/><use transform="matrix(0.012890625000000001,0,0,0.012890625000000001,16.641796875,0)" xlink:href="#aG"/><use transform="matrix(0.012890625000000001,0,0,0.012890625000000001,23.79609375,0)" xlink:href="#bR"/><use transform="matrix(0.012890625000000001,0,0,0.012890625000000001,47.888671875,0)" xlink:href="#aw"/><use transform="matrix(0.012890625000000001,0,0,0.012890625000000001,60.45703125000001,0)" xlink:href="#bT"/><use transform="matrix(0.012890625000000001,0,0,0.012890625000000001,76.892578125,0)" xlink:href="#aF"/><use transform="matrix(0.012890625000000001,0,0,0.012890625000000001,91.678125,0)" xlink:href="#aA"/><use transform="matrix(0.012890625000000001,0,0,0.012890625000000001,107.40468749999998,0)" xlink:href="#aC"/></g><g id="Z"><use transform="matrix(0.01171875,0,0,0.01171875,0,0)" xlink:href="#bn"/><use transform="matrix(0.01171875,0,0,0.01171875,14.94140625,0)" xlink:href="#aL"/><use transform="matrix(0.01171875,0,0,0.01171875,28.3828125,0)" xlink:href="#aZ"/><use transform="matrix(0.01171875,0,0,0.01171875,42.6796875,0)" xlink:href="#aI"/><use transform="matrix(0.01171875,0,0,0.01171875,52.453125,0)" xlink:href="#aP"/><use transform="matrix(0.01171875,0,0,0.01171875,64.25390625,0)" xlink:href="#aN"/><use transform="matrix(0.01171875,0,0,0.01171875,70.7578125,0)" xlink:href="#aQ"/></g><g id="aa"><use transform="matrix(0.01171875,0,0,0.01171875,0,0)" xlink:href="#aV"/><use transform="matrix(0.01171875,0,0,0.01171875,10.23046875,0)" xlink:href="#br"/><use transform="matrix(0.01171875,0,0,0.01171875,24.421875,0)" xlink:href="#bw"/><use transform="matrix(0.01171875,0,0,0.01171875,37.08984375,0)" xlink:href="#bl"/><use transform="matrix(0.01171875,0,0,0.01171875,51.08203125,0)" xlink:href="#bp"/><use transform="matrix(0.01171875,0,0,0.01171875,58.6171875,0)" xlink:href="#bU"/><use transform="matrix(0.01171875,0,0,0.01171875,65.53125,0)" xlink:href="#br"/><use transform="matrix(0.01171875,0,0,0.01171875,79.72265625,0)" xlink:href="#bw"/><use transform="matrix(0.01171875,0,0,0.01171875,92.390625,0)" xlink:href="#bl"/><use transform="matrix(0.01171875,0,0,0.01171875,106.3828125,0)" xlink:href="#bp"/><use transform="matrix(0.01171875,0,0,0.01171875,115.79296875,0)" xlink:href="#aS"/><use transform="matrix(0.01171875,0,0,0.01171875,122.23828125,0)" xlink:href="#by"/><use transform="matrix(0.01171875,0,0,0.01171875,139.55859375,0)" xlink:href="#aY"/></g><g id="ab"><use transform="matrix(0.01171875,0,0,0.01171875,0,0)" xlink:href="#bn"/><use transform="matrix(0.01171875,0,0,0.01171875,14.94140625,0)" xlink:href="#aL"/><use transform="matrix(0.01171875,0,0,0.01171875,28.3828125,0)" xlink:href="#aZ"/><use transform="matrix(0.01171875,0,0,0.01171875,42.6796875,0)" xlink:href="#aI"/><use transform="matrix(0.01171875,0,0,0.01171875,52.453125,0)" xlink:href="#aP"/><use transform="matrix(0.01171875,0,0,0.01171875,64.6875,0)" xlink:href="#aK"/><use transform="matrix(0.01171875,0,0,0.01171875,79.62890625,0)" xlink:href="#aJ"/><use transform="matrix(0.01171875,0,0,0.01171875,93.5625,0)" xlink:href="#bV"/><use transform="matrix(0.01171875,0,0,0.01171875,115.46484375,0)" xlink:href="#aZ"/></g><g id="ac"><use transform="matrix(0.01171875,0,0,0.01171875,0,0)" xlink:href="#bn"/><use transform="matrix(0.01171875,0,0,0.01171875,14.94140625,0)" xlink:href="#aL"/><use transform="matrix(0.01171875,0,0,0.01171875,28.3828125,0)" xlink:href="#aZ"/><use transform="matrix(0.01171875,0,0,0.01171875,42.6796875,0)" xlink:href="#aI"/><use transform="matrix(0.01171875,0,0,0.01171875,52.453125,0)" xlink:href="#aP"/><use transform="matrix(0.01171875,0,0,0.01171875,64.6875,0)" xlink:href="#aI"/><use transform="matrix(0.01171875,0,0,0.01171875,73.875,0)" xlink:href="#aO"/><use transform="matrix(0.01171875,0,0,0.01171875,88.59375,0)" xlink:href="#bt"/><use transform="matrix(0.01171875,0,0,0.01171875,95.09765625,0)" xlink:href="#aZ"/></g><g id="ad"><use transform="matrix(0.01171875,0,0,0.01171875,0,0)" xlink:href="#bn"/><use transform="matrix(0.01171875,0,0,0.01171875,14.94140625,0)" xlink:href="#aL"/><use transform="matrix(0.01171875,0,0,0.01171875,28.3828125,0)" xlink:href="#aZ"/><use transform="matrix(0.01171875,0,0,0.01171875,42.6796875,0)" xlink:href="#aI"/><use transform="matrix(0.01171875,0,0,0.01171875,52.453125,0)" xlink:href="#aP"/><use transform="matrix(0.01171875,0,0,0.01171875,63.87890625,0)" xlink:href="#aQ"/><use transform="matrix(0.01171875,0,0,0.01171875,79.0078125,0)" xlink:href="#aZ"/><use transform="matrix(0.01171875,0,0,0.01171875,93.3046875,0)" xlink:href="#bm"/><use transform="matrix(0.01171875,0,0,0.01171875,108.66796875,0)" xlink:href="#aJ"/><use transform="matrix(0.01171875,0,0,0.01171875,122.6015625,0)" xlink:href="#aI"/><use transform="matrix(0.01171875,0,0,0.01171875,132.84375,0)" xlink:href="#aH"/><use transform="matrix(0.01171875,0,0,0.01171875,141.6328125,0)" xlink:href="#bV"/><use transform="matrix(0.01171875,0,0,0.01171875,163.53515625,0)" xlink:href="#aZ"/><use transform="matrix(0.01171875,0,0,0.01171875,177.83203125,0)" xlink:href="#aK"/><use transform="matrix(0.01171875,0,0,0.01171875,192.7734375,0)" xlink:href="#aH"/><use transform="matrix(0.01171875,0,0,0.01171875,201.5625,0)" xlink:href="#aP"/><use transform="matrix(0.01171875,0,0,0.01171875,213.796875,0)" xlink:href="#aK"/><use transform="matrix(0.01171875,0,0,0.01171875,228.73828125,0)" xlink:href="#aJ"/><use transform="matrix(0.01171875,0,0,0.01171875,242.671875,0)" xlink:href="#bV"/><use transform="matrix(0.01171875,0,0,0.01171875,264.57421875,0)" xlink:href="#aZ"/><use transform="matrix(0.01171875,0,0,0.01171875,278.87109375,0)" xlink:href="#aR"/></g><path fill="#424242" d="M626 20c-262 0-458-168-468-396h184c12 133 134 229 284 229 180 0 311-137 311-326 0-192-136-335-323-335-92 0-196 33-255 78l-178-22 88-738h784v167H429l-51 435h8c61-51 160-87 263-87 273 0 474 211 474 499 0 286-210 496-497 496" id="cu"/><g id="ae"><use transform="matrix(0.01171875,0,0,0.01171875,0,0)" xlink:href="#bM"/><use transform="matrix(0.01171875,0,0,0.01171875,14.91796875,0)" xlink:href="#bC"/><use transform="matrix(0.01171875,0,0,0.01171875,31.4765625,0)" xlink:href="#bN"/><use transform="matrix(0.01171875,0,0,0.01171875,46.921875,0)" xlink:href="#bA"/><use transform="matrix(0.01171875,0,0,0.01171875,64.453125,0)" xlink:href="#bO"/><use transform="matrix(0.01171875,0,0,0.01171875,82.2890625,0)" xlink:href="#bC"/><use transform="matrix(0.01171875,0,0,0.01171875,98.84765625,0)" xlink:href="#bN"/><use transform="matrix(0.01171875,0,0,0.01171875,114.29296875,0)" xlink:href="#bE"/><use transform="matrix(0.01171875,0,0,0.01171875,123.046875,0)" xlink:href="#bG"/><use transform="matrix(0.01171875,0,0,0.01171875,137.68359375,0)" xlink:href="#cu"/><use transform="matrix(0.01171875,0,0,0.01171875,152.2734375,0)" xlink:href="#bY"/><use transform="matrix(0.01171875,0,0,0.01171875,167.15625,0)" xlink:href="#bI"/></g><path fill="#111827" d="M428-1490V0H128v-1490h300" id="cv"/><g id="af"><use transform="matrix(0.012890625000000001,0,0,0.012890625000000001,0,0)" xlink:href="#bQ"/><use transform="matrix(0.012890625000000001,0,0,0.012890625000000001,16.641796875,0)" xlink:href="#aG"/><use transform="matrix(0.012890625000000001,0,0,0.012890625000000001,23.79609375,0)" xlink:href="#bR"/><use transform="matrix(0.012890625000000001,0,0,0.012890625000000001,47.888671875,0)" xlink:href="#aw"/><use transform="matrix(0.012890625000000001,0,0,0.012890625000000001,61.346484375,0)" xlink:href="#cv"/><use transform="matrix(0.012890625000000001,0,0,0.012890625000000001,68.50078125,0)" xlink:href="#aB"/><use transform="matrix(0.012890625000000001,0,0,0.012890625000000001,84.69140625,0)" xlink:href="#au"/><use transform="matrix(0.012890625000000001,0,0,0.012890625000000001,100.482421875,0)" xlink:href="#at"/><use transform="matrix(0.012890625000000001,0,0,0.012890625000000001,115.809375,0)" xlink:href="#av"/><use transform="matrix(0.012890625000000001,0,0,0.012890625000000001,125.47734375000002,0)" xlink:href="#aG"/><use transform="matrix(0.012890625000000001,0,0,0.012890625000000001,132.63164062500002,0)" xlink:href="#aB"/><use transform="matrix(0.012890625000000001,0,0,0.012890625000000001,148.82226562500003,0)" xlink:href="#ay"/></g><g id="ag"><use transform="matrix(0.01171875,0,0,0.01171875,0,0)" xlink:href="#bt"/><use transform="matrix(0.01171875,0,0,0.01171875,6.50390625,0)" xlink:href="#aO"/><use transform="matrix(0.01171875,0,0,0.01171875,21.22265625,0)" xlink:href="#aM"/><use transform="matrix(0.01171875,0,0,0.01171875,35.578125,0)" xlink:href="#aJ"/><use transform="matrix(0.01171875,0,0,0.01171875,49.51171875,0)" xlink:href="#aH"/><use transform="matrix(0.01171875,0,0,0.01171875,58.30078125,0)" xlink:href="#aN"/><use transform="matrix(0.01171875,0,0,0.01171875,64.8046875,0)" xlink:href="#aO"/><use transform="matrix(0.01171875,0,0,0.01171875,79.5234375,0)" xlink:href="#aK"/><use transform="matrix(0.01171875,0,0,0.01171875,94.46484375,0)" xlink:href="#aP"/><use transform="matrix(0.01171875,0,0,0.01171875,106.265625,0)" xlink:href="#aN"/><use transform="matrix(0.01171875,0,0,0.01171875,112.76953125,0)" xlink:href="#aQ"/></g><g id="ah"><use transform="matrix(0.01171875,0,0,0.01171875,0,0)" xlink:href="#aV"/><use transform="matrix(0.01171875,0,0,0.01171875,10.23046875,0)" xlink:href="#bD"/><use transform="matrix(0.01171875,0,0,0.01171875,23.80078125,0)" xlink:href="#bq"/><use transform="matrix(0.01171875,0,0,0.01171875,38.19140625,0)" xlink:href="#bs"/><use transform="matrix(0.01171875,0,0,0.01171875,52.13671875,0)" xlink:href="#bj"/><use transform="matrix(0.01171875,0,0,0.01171875,65.61328125,0)" xlink:href="#bk"/><use transform="matrix(0.01171875,0,0,0.01171875,73.46484375,0)" xlink:href="#bg"/><use transform="matrix(0.01171875,0,0,0.01171875,79.27734375,0)" xlink:href="#bq"/><use transform="matrix(0.01171875,0,0,0.01171875,93.66796875,0)" xlink:href="#bv"/><use transform="matrix(0.01171875,0,0,0.01171875,107.84765625,0)" xlink:href="#bU"/><use transform="matrix(0.01171875,0,0,0.01171875,114.76171875,0)" xlink:href="#bu"/><use transform="matrix(0.01171875,0,0,0.01171875,120.57421875,0)" xlink:href="#bq"/><use transform="matrix(0.01171875,0,0,0.01171875,134.96484375,0)" xlink:href="#bs"/><use transform="matrix(0.01171875,0,0,0.01171875,148.91015625,0)" xlink:href="#bj"/><use transform="matrix(0.01171875,0,0,0.01171875,162.38671875,0)" xlink:href="#bk"/><use transform="matrix(0.01171875,0,0,0.01171875,170.23828125,0)" xlink:href="#bg"/><use transform="matrix(0.01171875,0,0,0.01171875,176.05078125,0)" xlink:href="#bq"/><use transform="matrix(0.01171875,0,0,0.01171875,190.44140625,0)" xlink:href="#bv"/><use transform="matrix(0.01171875,0,0,0.01171875,204.62109375,0)" xlink:href="#aS"/><use transform="matrix(0.01171875,0,0,0.01171875,211.06640625,0)" xlink:href="#by"/><use transform="matrix(0.01171875,0,0,0.01171875,228.38671875,0)" xlink:href="#aY"/></g><g id="ai"><use transform="matrix(0.01171875,0,0,0.01171875,0,0)" xlink:href="#aL"/><use transform="matrix(0.01171875,0,0,0.01171875,13.44140625,0)" xlink:href="#aN"/><use transform="matrix(0.01171875,0,0,0.01171875,19.9453125,0)" xlink:href="#aH"/><use transform="matrix(0.01171875,0,0,0.01171875,28.5,0)" xlink:href="#aZ"/><use transform="matrix(0.01171875,0,0,0.01171875,42.796875,0)" xlink:href="#aP"/><use transform="matrix(0.01171875,0,0,0.01171875,55.03125,0)" xlink:href="#aK"/><use transform="matrix(0.01171875,0,0,0.01171875,69.97265625,0)" xlink:href="#aJ"/><use transform="matrix(0.01171875,0,0,0.01171875,83.90625,0)" xlink:href="#bV"/><use transform="matrix(0.01171875,0,0,0.01171875,105.80859375,0)" xlink:href="#aZ"/></g><g id="aj"><use transform="matrix(0.01171875,0,0,0.01171875,0,0)" xlink:href="#bM"/><use transform="matrix(0.01171875,0,0,0.01171875,14.91796875,0)" xlink:href="#bC"/><use transform="matrix(0.01171875,0,0,0.01171875,31.4765625,0)" xlink:href="#bN"/><use transform="matrix(0.01171875,0,0,0.01171875,46.921875,0)" xlink:href="#bA"/><use transform="matrix(0.01171875,0,0,0.01171875,64.453125,0)" xlink:href="#bO"/><use transform="matrix(0.01171875,0,0,0.01171875,82.2890625,0)" xlink:href="#bC"/><use transform="matrix(0.01171875,0,0,0.01171875,98.84765625,0)" xlink:href="#bN"/><use transform="matrix(0.01171875,0,0,0.01171875,114.29296875,0)" xlink:href="#bE"/><use transform="matrix(0.01171875,0,0,0.01171875,123.046875,0)" xlink:href="#bG"/><use transform="matrix(0.01171875,0,0,0.01171875,137.68359375,0)" xlink:href="#cu"/><use transform="matrix(0.01171875,0,0,0.01171875,152.2734375,0)" xlink:href="#bY"/><use transform="matrix(0.01171875,0,0,0.01171875,167.15625,0)" xlink:href="#bI"/></g><g id="ak"><use transform="matrix(0.01171875,0,0,0.01171875,0,0)" xlink:href="#bJ"/><use transform="matrix(0.01171875,0,0,0.01171875,15.12890625,0)" xlink:href="#bn"/><use transform="matrix(0.01171875,0,0,0.01171875,30.0703125,0)" xlink:href="#aN"/><use transform="matrix(0.01171875,0,0,0.01171875,36.57421875,0)" xlink:href="#bt"/><use transform="matrix(0.01171875,0,0,0.01171875,43.078125,0)" xlink:href="#aQ"/><use transform="matrix(0.01171875,0,0,0.01171875,58.20703125,0)" xlink:href="#aN"/><use transform="matrix(0.01171875,0,0,0.01171875,64.7109375,0)" xlink:href="#aK"/><use transform="matrix(0.01171875,0,0,0.01171875,79.65234375,0)" xlink:href="#bX"/></g><g id="al"><use transform="matrix(0.01171875,0,0,0.01171875,0,0)" xlink:href="#aI"/><use transform="matrix(0.01171875,0,0,0.01171875,9.1875,0)" xlink:href="#aO"/><use transform="matrix(0.01171875,0,0,0.01171875,23.90625,0)" xlink:href="#aO"/><use transform="matrix(0.01171875,0,0,0.01171875,38.625,0)" xlink:href="#bV"/><use transform="matrix(0.01171875,0,0,0.01171875,60.52734375,0)" xlink:href="#aP"/><use transform="matrix(0.01171875,0,0,0.01171875,72.76171875,0)" xlink:href="#aK"/><use transform="matrix(0.01171875,0,0,0.01171875,87.703125,0)" xlink:href="#bn"/><use transform="matrix(0.01171875,0,0,0.01171875,102.64453125,0)" xlink:href="#bV"/><use transform="matrix(0.01171875,0,0,0.01171875,124.546875,0)" xlink:href="#bJ"/><use transform="matrix(0.01171875,0,0,0.01171875,139.67578125,0)" xlink:href="#aZ"/><use transform="matrix(0.01171875,0,0,0.01171875,153.97265625,0)" xlink:href="#aI"/></g><g id="am"><use transform="matrix(0.01171875,0,0,0.01171875,0,0)" xlink:href="#bM"/><use transform="matrix(0.01171875,0,0,0.01171875,14.91796875,0)" xlink:href="#bC"/><use transform="matrix(0.01171875,0,0,0.01171875,31.4765625,0)" xlink:href="#bN"/><use transform="matrix(0.01171875,0,0,0.01171875,46.921875,0)" xlink:href="#bA"/><use transform="matrix(0.01171875,0,0,0.01171875,64.453125,0)" xlink:href="#bO"/><use transform="matrix(0.01171875,0,0,0.01171875,82.2890625,0)" xlink:href="#bC"/><use transform="matrix(0.01171875,0,0,0.01171875,98.84765625,0)" xlink:href="#bN"/><use transform="matrix(0.01171875,0,0,0.01171875,114.29296875,0)" xlink:href="#bE"/><use transform="matrix(0.01171875,0,0,0.01171875,123.046875,0)" xlink:href="#bG"/><use transform="matrix(0.01171875,0,0,0.01171875,137.68359375,0)" xlink:href="#cu"/><use transform="matrix(0.01171875,0,0,0.01171875,152.2734375,0)" xlink:href="#bY"/><use transform="matrix(0.01171875,0,0,0.01171875,167.15625,0)" xlink:href="#bI"/></g><g id="an"><use transform="matrix(0.01171875,0,0,0.01171875,0,0)" xlink:href="#aL"/><use transform="matrix(0.01171875,0,0,0.01171875,13.44140625,0)" xlink:href="#aH"/><use transform="matrix(0.01171875,0,0,0.01171875,21.99609375,0)" xlink:href="#aO"/><use transform="matrix(0.01171875,0,0,0.01171875,36.71484375,0)" xlink:href="#aI"/><use transform="matrix(0.01171875,0,0,0.01171875,46.16015625,0)" xlink:href="#aJ"/><use transform="matrix(0.01171875,0,0,0.01171875,60.09375,0)" xlink:href="#bX"/><use transform="matrix(0.01171875,0,0,0.01171875,75.2578125,0)" xlink:href="#aZ"/><use transform="matrix(0.01171875,0,0,0.01171875,89.5546875,0)" xlink:href="#aP"/><use transform="matrix(0.01171875,0,0,0.01171875,100.98046875,0)" xlink:href="#aH"/><use transform="matrix(0.01171875,0,0,0.01171875,110.296875,0)" xlink:href="#bb"/><use transform="matrix(0.01171875,0,0,0.01171875,124.74609375,0)" xlink:href="#bm"/><use transform="matrix(0.01171875,0,0,0.01171875,139.875,0)" xlink:href="#aZ"/></g><path fill="#282c33" d="M443 0L31-1118h319c90 293 199 572 268 885 66-313 175-593 264-885h315L784 0H443" id="cw"/><g id="ao"><use transform="matrix(0.010959201388888886,0,0,0.010959201388888886,0,0)" xlink:href="#cp"/><use transform="matrix(0.010959201388888886,0,0,0.010959201388888886,13.97298177083333,0)" xlink:href="#cg"/><use transform="matrix(0.010959201388888886,0,0,0.010959201388888886,26.619900173611104,0)" xlink:href="#cw"/><use transform="matrix(0.010959201388888886,0,0,0.010959201388888886,39.67230902777777,0)" xlink:href="#cm"/></g><g id="ap"><use transform="matrix(0.010959201388888886,0,0,0.010959201388888886,0,0)" xlink:href="#cn"/><use transform="matrix(0.010959201388888886,0,0,0.010959201388888886,14.148328993055552,0)" xlink:href="#cg"/><use transform="matrix(0.010959201388888886,0,0,0.010959201388888886,27.17881944444444,0)" xlink:href="#cl"/><use transform="matrix(0.010959201388888886,0,0,0.010959201388888886,35.17903645833332,0)" xlink:href="#cm"/></g><g id="aq"><use transform="matrix(0.010959201388888886,0,0,0.010959201388888886,0,0)" xlink:href="#cs"/><use transform="matrix(0.010959201388888886,0,0,0.010959201388888886,13.97298177083333,0)" xlink:href="#ch"/><use transform="matrix(0.010959201388888886,0,0,0.010959201388888886,26.543185763888882,0)" xlink:href="#cm"/><use transform="matrix(0.010959201388888886,0,0,0.010959201388888886,39.91341145833332,0)" xlink:href="#cr"/></g><path fill="#282c33" d="M428-1490V0H128v-1490h300" id="cx"/><path fill="#282c33" d="M428-647V0H128v-1118h283l4 231c63-156 176-245 348-245 232 0 384 159 384 421V0H847v-659c0-139-76-222-202-222-128 0-217 86-217 234" id="cy"/><g id="ar"><use transform="matrix(0.010959201388888886,0,0,0.010959201388888886,0,0)" xlink:href="#cx"/><use transform="matrix(0.010959201388888886,0,0,0.010959201388888886,6.082356770833332,0)" xlink:href="#ci"/><use transform="matrix(0.010959201388888886,0,0,0.010959201388888886,19.84711371527777,0)" xlink:href="#cj"/><use transform="matrix(0.010959201388888886,0,0,0.010959201388888886,33.27213541666666,0)" xlink:href="#cg"/><use transform="matrix(0.010959201388888886,0,0,0.010959201388888886,46.30262586805554,0)" xlink:href="#cl"/><use transform="matrix(0.010959201388888886,0,0,0.010959201388888886,54.52202690972221,0)" xlink:href="#ck"/><use transform="matrix(0.010959201388888886,0,0,0.010959201388888886,60.60438368055554,0)" xlink:href="#ci"/><use transform="matrix(0.010959201388888886,0,0,0.010959201388888886,74.36914062499999,0)" xlink:href="#cy"/></g></defs></g></svg>